ISO-10303-21;
HEADER;
FILE_DESCRIPTION(('FreeCAD Model'),'2;1');
FILE_NAME('Open CASCADE Shape Model','2026-09-26T00:05:48',('FreeCAD'),(
    'FreeCAD'),'Open CASCADE STEP processor 7.8','FreeCAD','Unknown');
FILE_SCHEMA(('AUTOMOTIVE_DESIGN { 1 0 10303 214 1 1 1 1 }'));
ENDSEC;
DATA;
#1 = APPLICATION_PROTOCOL_DEFINITION('international standard',
  'automotive_design',2000,#2);
#2 = APPLICATION_CONTEXT(
  'core data for automotive mechanical design processes');
#3 = SHAPE_DEFINITION_REPRESENTATION(#4,#10);
#4 = PRODUCT_DEFINITION_SHAPE('','',#5);
#5 = PRODUCT_DEFINITION('design','',#6,#9);
#6 = PRODUCT_DEFINITION_FORMATION('','',#7);
#7 = PRODUCT('Open CASCADE STEP translator 7.8 4',
  'Open CASCADE STEP translator 7.8 4','',(#8));
#8 = PRODUCT_CONTEXT('',#2,'mechanical');
#9 = PRODUCT_DEFINITION_CONTEXT('part definition',#2,'design');
#10 = ADVANCED_BREP_SHAPE_REPRESENTATION('',(#11,#15),#532);
#11 = AXIS2_PLACEMENT_3D('',#12,#13,#14);
#12 = CARTESIAN_POINT('',(0.,0.,0.));
#13 = DIRECTION('',(0.,0.,1.));
#14 = DIRECTION('',(1.,0.,-0.));
#15 = MANIFOLD_SOLID_BREP('',#16);
#16 = CLOSED_SHELL('',(#17,#119,#247,#275,#328,#360,#392,#404,#429,#454,
    #479,#504,#514));
#17 = ADVANCED_FACE('',(#18),#114,.T.);
#18 = FACE_BOUND('',#19,.T.);
#19 = EDGE_LOOP('',(#20,#30,#37,#38,#69,#77,#84,#85));
#20 = ORIENTED_EDGE('',*,*,#21,.T.);
#21 = EDGE_CURVE('',#22,#24,#26,.T.);
#22 = VERTEX_POINT('',#23);
#23 = CARTESIAN_POINT('',(22.,-8.572527594031E-16,67.9));
#24 = VERTEX_POINT('',#25);
#25 = CARTESIAN_POINT('',(22.,-2.204364238465E-15,72.4));
#26 = LINE('',#27,#28);
#27 = CARTESIAN_POINT('',(22.,-2.204364238465E-15,59.4));
#28 = VECTOR('',#29,1.);
#29 = DIRECTION('',(0.,0.,1.));
#30 = ORIENTED_EDGE('',*,*,#31,.F.);
#31 = EDGE_CURVE('',#24,#24,#32,.T.);
#32 = CIRCLE('',#33,9.);
#33 = AXIS2_PLACEMENT_3D('',#34,#35,#36);
#34 = CARTESIAN_POINT('',(13.,0.,72.4));
#35 = DIRECTION('',(0.,0.,1.));
#36 = DIRECTION('',(1.,0.,-0.));
#37 = ORIENTED_EDGE('',*,*,#21,.F.);
#38 = ORIENTED_EDGE('',*,*,#39,.F.);
#39 = EDGE_CURVE('',#40,#22,#42,.T.);
#40 = VERTEX_POINT('',#41);
#41 = CARTESIAN_POINT('',(22.,-2.204364238465E-15,63.9));
#42 = B_SPLINE_CURVE_WITH_KNOTS('',7,(#43,#44,#45,#46,#47,#48,#49,#50,
    #51,#52,#53,#54,#55,#56,#57,#58,#59,#60,#61,#62,#63,#64,#65,#66,#67,
    #68),.UNSPECIFIED.,.F.,.F.,(8,6,6,6,8),(0.,0.236015120607,
    0.500043906246,0.764072691885,1.),.UNSPECIFIED.);
#43 = CARTESIAN_POINT('',(22.,7.657137397854E-16,63.9));
#44 = CARTESIAN_POINT('',(22.,0.254758767215,63.9));
#45 = CARTESIAN_POINT('',(21.991586461821,0.502988940005,63.937859135089
    ));
#46 = CARTESIAN_POINT('',(21.975537848898,0.738145427453,64.010087380768
    ));
#47 = CARTESIAN_POINT('',(21.953839576723,0.954706402716,64.111995923592
    ));
#48 = CARTESIAN_POINT('',(21.929244436092,1.148341106565,64.237695436002
    ));
#49 = CARTESIAN_POINT('',(21.904377319603,1.316307045494,64.380084933864
    ));
#50 = CARTESIAN_POINT('',(21.855117257396,1.616378172052,64.699628228052
    ));
#51 = CARTESIAN_POINT('',(21.830412089495,1.746241444493,64.883567648854
    ));
#52 = CARTESIAN_POINT('',(21.808998100507,1.848570554851,65.077828938671
    ));
#53 = CARTESIAN_POINT('',(21.792179570702,1.924469384699,65.278988812272
    ));
#54 = CARTESIAN_POINT('',(21.780709848224,1.97479172644,65.484459996579)
  );
#55 = CARTESIAN_POINT('',(21.774964387392,2.,65.692117490902));
#56 = CARTESIAN_POINT('',(21.774964387392,2.,66.107882509098));
#57 = CARTESIAN_POINT('',(21.780709848224,1.97479172644,66.315540003421)
  );
#58 = CARTESIAN_POINT('',(21.792179570702,1.924469384699,66.521011187728
    ));
#59 = CARTESIAN_POINT('',(21.808998100507,1.848570554851,66.722171061329
    ));
#60 = CARTESIAN_POINT('',(21.830412089495,1.746241444493,66.916432351146
    ));
#61 = CARTESIAN_POINT('',(21.855117257396,1.616378172052,67.100371771948
    ));
#62 = CARTESIAN_POINT('',(21.904368669065,1.316359740854,67.419858951278
    ));
#63 = CARTESIAN_POINT('',(21.929238720351,1.148388164003,67.562281630647
    ));
#64 = CARTESIAN_POINT('',(21.953843511115,0.954698802,67.688029563318));
#65 = CARTESIAN_POINT('',(21.975548513517,0.738064885368,67.789960502052
    ));
#66 = CARTESIAN_POINT('',(21.991593865279,0.502859130986,67.862174202655
    ));
#67 = CARTESIAN_POINT('',(22.,0.254646600298,67.9));
#68 = CARTESIAN_POINT('',(22.,2.449293598295E-16,67.9));
#69 = ORIENTED_EDGE('',*,*,#70,.F.);
#70 = EDGE_CURVE('',#71,#40,#73,.T.);
#71 = VERTEX_POINT('',#72);
#72 = CARTESIAN_POINT('',(22.,-2.204364238465E-15,59.4));
#73 = LINE('',#74,#75);
#74 = CARTESIAN_POINT('',(22.,-2.204364238465E-15,59.4));
#75 = VECTOR('',#76,1.);
#76 = DIRECTION('',(0.,0.,1.));
#77 = ORIENTED_EDGE('',*,*,#78,.T.);
#78 = EDGE_CURVE('',#71,#71,#79,.T.);
#79 = CIRCLE('',#80,9.);
#80 = AXIS2_PLACEMENT_3D('',#81,#82,#83);
#81 = CARTESIAN_POINT('',(13.,0.,59.4));
#82 = DIRECTION('',(0.,0.,1.));
#83 = DIRECTION('',(1.,0.,-0.));
#84 = ORIENTED_EDGE('',*,*,#70,.T.);
#85 = ORIENTED_EDGE('',*,*,#86,.F.);
#86 = EDGE_CURVE('',#22,#40,#87,.T.);
#87 = B_SPLINE_CURVE_WITH_KNOTS('',7,(#88,#89,#90,#91,#92,#93,#94,#95,
    #96,#97,#98,#99,#100,#101,#102,#103,#104,#105,#106,#107,#108,#109,
    #110,#111,#112,#113),.UNSPECIFIED.,.F.,.F.,(8,6,6,6,8),(0.,
    0.236012019086,0.500033188134,0.764073050178,1.),.UNSPECIFIED.);
#88 = CARTESIAN_POINT('',(22.,-8.881784197001E-16,67.9));
#89 = CARTESIAN_POINT('',(22.,-0.254758767215,67.9));
#90 = CARTESIAN_POINT('',(21.991586461821,-0.502988940005,
    67.862140864911));
#91 = CARTESIAN_POINT('',(21.975537848898,-0.738145427453,
    67.789912619232));
#92 = CARTESIAN_POINT('',(21.953839576723,-0.954706402716,
    67.688004076408));
#93 = CARTESIAN_POINT('',(21.929244436092,-1.148341106565,
    67.562304563998));
#94 = CARTESIAN_POINT('',(21.904377319603,-1.316307045494,
    67.419915066136));
#95 = CARTESIAN_POINT('',(21.855117665922,-1.616375683485,
    67.100374422002));
#96 = CARTESIAN_POINT('',(21.830412652505,-1.746238658409,66.91643680345
    ));
#97 = CARTESIAN_POINT('',(21.808998107508,-1.848571222282,
    66.722172891354));
#98 = CARTESIAN_POINT('',(21.792178665407,-1.924473286638,
    66.521005539838));
#99 = CARTESIAN_POINT('',(21.780709052254,-1.974795242679,
    66.315526399283));
#100 = CARTESIAN_POINT('',(21.774964387392,-2.,66.107867791824));
#101 = CARTESIAN_POINT('',(21.774964387392,-2.,65.692117490902));
#102 = CARTESIAN_POINT('',(21.780709848224,-1.97479172644,
    65.484459996578));
#103 = CARTESIAN_POINT('',(21.792179570702,-1.924469384699,
    65.278988812273));
#104 = CARTESIAN_POINT('',(21.808998100507,-1.848570554851,
    65.07782893867));
#105 = CARTESIAN_POINT('',(21.830412089495,-1.746241444493,
    64.883567648854));
#106 = CARTESIAN_POINT('',(21.855117257396,-1.616378172052,
    64.699628228052));
#107 = CARTESIAN_POINT('',(21.904367658794,-1.316365894993,
    64.380147602215));
#108 = CARTESIAN_POINT('',(21.929237109453,-1.148399352135,
    64.237727122745));
#109 = CARTESIAN_POINT('',(21.953842445142,-0.954709737943,
    64.111974690088));
#110 = CARTESIAN_POINT('',(21.97554889341,-0.738067789818,
    64.010037504515));
#111 = CARTESIAN_POINT('',(21.99159476066,-0.502850897305,
    63.937821896274));
#112 = CARTESIAN_POINT('',(22.,-0.254633321578,63.9));
#113 = CARTESIAN_POINT('',(22.,-4.440892098501E-16,63.9));
#114 = CYLINDRICAL_SURFACE('',#115,9.);
#115 = AXIS2_PLACEMENT_3D('',#116,#117,#118);
#116 = CARTESIAN_POINT('',(13.,0.,59.4));
#117 = DIRECTION('',(0.,0.,1.));
#118 = DIRECTION('',(1.,0.,-0.));
#119 = ADVANCED_FACE('',(#120),#242,.F.);
#120 = FACE_BOUND('',#121,.F.);
#121 = EDGE_LOOP('',(#122,#123,#131,#140,#182,#191,#233,#240,#241));
#122 = ORIENTED_EDGE('',*,*,#86,.F.);
#123 = ORIENTED_EDGE('',*,*,#124,.F.);
#124 = EDGE_CURVE('',#125,#22,#127,.T.);
#125 = VERTEX_POINT('',#126);
#126 = CARTESIAN_POINT('',(15.15,4.898587196589E-16,67.9));
#127 = LINE('',#128,#129);
#128 = CARTESIAN_POINT('',(13.,4.898587196589E-16,67.9));
#129 = VECTOR('',#130,1.);
#130 = DIRECTION('',(1.,0.,0.));
#131 = ORIENTED_EDGE('',*,*,#132,.T.);
#132 = EDGE_CURVE('',#125,#133,#135,.T.);
#133 = VERTEX_POINT('',#134);
#134 = CARTESIAN_POINT('',(15.15,-1.549193338483,67.164911064068));
#135 = CIRCLE('',#136,2.);
#136 = AXIS2_PLACEMENT_3D('',#137,#138,#139);
#137 = CARTESIAN_POINT('',(15.15,0.,65.9));
#138 = DIRECTION('',(1.,0.,0.));
#139 = DIRECTION('',(-0.,0.,1.));
#140 = ORIENTED_EDGE('',*,*,#141,.T.);
#141 = EDGE_CURVE('',#133,#142,#144,.T.);
#142 = VERTEX_POINT('',#143);
#143 = CARTESIAN_POINT('',(15.15,-1.549193338483,64.635088935932));
#144 = B_SPLINE_CURVE_WITH_KNOTS('',6,(#145,#146,#147,#148,#149,#150,
    #151,#152,#153,#154,#155,#156,#157,#158,#159,#160,#161,#162,#163,
    #164,#165,#166,#167,#168,#169,#170,#171,#172,#173,#174,#175,#176,
    #177,#178,#179,#180,#181),.UNSPECIFIED.,.F.,.F.,(7,5,5,5,5,5,5,7),(
    0.,4.417552991284E-02,0.299199079728,0.500504924035,0.631559756539,
    0.702301599375,0.955257726045,1.),.UNSPECIFIED.);
#145 = CARTESIAN_POINT('',(15.15,-1.549193338483,67.164911064067));
#146 = CARTESIAN_POINT('',(15.14081462676,-1.561940974285,
    67.149298462497));
#147 = CARTESIAN_POINT('',(15.131647692156,-1.574471798912,
    67.133565993155));
#148 = CARTESIAN_POINT('',(15.122504268236,-1.586787276575,
    67.117715032085));
#149 = CARTESIAN_POINT('',(15.11338949289,-1.598888723979,
    67.101746799753));
#150 = CARTESIAN_POINT('',(15.104308569847,-1.610777310325,
    67.085662361046));
#151 = CARTESIAN_POINT('',(15.043068815747,-1.68986344599,
    66.975942205042));
#152 = CARTESIAN_POINT('',(14.992119225471,-1.750284450391,
    66.878480337239));
#153 = CARTESIAN_POINT('',(14.943479875859,-1.803834236466,
    66.777306303081));
#154 = CARTESIAN_POINT('',(14.898347835888,-1.850452020613,
    66.672588031036));
#155 = CARTESIAN_POINT('',(14.85812111115,-1.889989862332,66.56440770789
    ));
#156 = CARTESIAN_POINT('',(14.79758252724,-1.947447751838,
    66.364605799417));
#157 = CARTESIAN_POINT('',(14.774787127347,-1.968236840365,
    66.27405360757));
#158 = CARTESIAN_POINT('',(14.756904945886,-1.98403084227,
    66.181822337275));
#159 = CARTESIAN_POINT('',(14.744683480387,-1.994654282817,
    66.088459535415));
#160 = CARTESIAN_POINT('',(14.738533865071,-2.,65.994390873391));
#161 = CARTESIAN_POINT('',(14.738533865071,-2.,65.838549324562));
#162 = CARTESIAN_POINT('',(14.741139949237,-1.997734237104,
    65.777147823737));
#163 = CARTESIAN_POINT('',(14.746346129532,-1.993209751646,
    65.715938793468));
#164 = CARTESIAN_POINT('',(14.754071100968,-1.986448864356,
    65.655083031864));
#165 = CARTESIAN_POINT('',(14.764162747308,-1.97749889352,
    65.594758928208));
#166 = CARTESIAN_POINT('',(14.783009599213,-1.960473423262,
    65.502993135551));
#167 = CARTESIAN_POINT('',(14.790245129347,-1.953888925944,
    65.471023693557));
#168 = CARTESIAN_POINT('',(14.798080016958,-1.946696384212,
    65.439265106897));
#169 = CARTESIAN_POINT('',(14.806482747061,-1.938904681501,
    65.407730001055));
#170 = CARTESIAN_POINT('',(14.815419509903,-1.930523580661,
    65.376432746095));
#171 = CARTESIAN_POINT('',(14.858590428524,-1.889525391935,
    65.234385983462));
#172 = CARTESIAN_POINT('',(14.898634625521,-1.850144963164,
    65.126826029146));
#173 = CARTESIAN_POINT('',(14.943522650466,-1.803762455895,
    65.022691946526));
#174 = CARTESIAN_POINT('',(14.991880181757,-1.750523543351,
    64.922064435875));
#175 = CARTESIAN_POINT('',(15.042529233376,-1.690487889646,
    64.825107971264));
#176 = CARTESIAN_POINT('',(15.103603592162,-1.611699848311,
    64.715586743978));
#177 = CARTESIAN_POINT('',(15.112823384147,-1.599640077084,
    64.699245212005));
#178 = CARTESIAN_POINT('',(15.12207833827,-1.587360838384,
    64.683023471912));
#179 = CARTESIAN_POINT('',(15.131363002263,-1.574860912405,
    64.666922633901));
#180 = CARTESIAN_POINT('',(15.1406719937,-1.56213892316,64.650943974373)
  );
#181 = CARTESIAN_POINT('',(15.15,-1.549193338483,64.635088935933));
#182 = ORIENTED_EDGE('',*,*,#183,.T.);
#183 = EDGE_CURVE('',#142,#184,#186,.T.);
#184 = VERTEX_POINT('',#185);
#185 = CARTESIAN_POINT('',(15.15,1.549193338483,64.635088935932));
#186 = CIRCLE('',#187,2.);
#187 = AXIS2_PLACEMENT_3D('',#188,#189,#190);
#188 = CARTESIAN_POINT('',(15.15,0.,65.9));
#189 = DIRECTION('',(1.,0.,0.));
#190 = DIRECTION('',(-0.,0.,1.));
#191 = ORIENTED_EDGE('',*,*,#192,.T.);
#192 = EDGE_CURVE('',#184,#193,#195,.T.);
#193 = VERTEX_POINT('',#194);
#194 = CARTESIAN_POINT('',(15.15,1.549193338483,67.164911064068));
#195 = B_SPLINE_CURVE_WITH_KNOTS('',6,(#196,#197,#198,#199,#200,#201,
    #202,#203,#204,#205,#206,#207,#208,#209,#210,#211,#212,#213,#214,
    #215,#216,#217,#218,#219,#220,#221,#222,#223,#224,#225,#226,#227,
    #228,#229,#230,#231,#232),.UNSPECIFIED.,.F.,.F.,(7,5,5,5,5,5,5,7),(
    0.,4.417552991215E-02,0.299199079726,0.500504924033,0.631559756536,
    0.702301599372,0.955257726044,1.),.UNSPECIFIED.);
#196 = CARTESIAN_POINT('',(15.15,1.549193338483,64.635088935933));
#197 = CARTESIAN_POINT('',(15.14081462676,1.561940974285,64.650701537503
    ));
#198 = CARTESIAN_POINT('',(15.131647692156,1.574471798912,
    64.666434006845));
#199 = CARTESIAN_POINT('',(15.122504268236,1.586787276575,
    64.682284967915));
#200 = CARTESIAN_POINT('',(15.11338949289,1.598888723979,64.698253200247
    ));
#201 = CARTESIAN_POINT('',(15.104308569847,1.610777310325,
    64.714337638954));
#202 = CARTESIAN_POINT('',(15.043068815747,1.689863445991,
    64.824057794959));
#203 = CARTESIAN_POINT('',(14.992119225471,1.750284450391,
    64.921519662761));
#204 = CARTESIAN_POINT('',(14.943479875859,1.803834236465,
    65.022693696918));
#205 = CARTESIAN_POINT('',(14.898347835888,1.850452020614,
    65.127411968964));
#206 = CARTESIAN_POINT('',(14.85812111115,1.889989862332,65.235592292111
    ));
#207 = CARTESIAN_POINT('',(14.79758252724,1.947447751838,65.435394200583
    ));
#208 = CARTESIAN_POINT('',(14.774787127347,1.968236840365,65.52594639243
    ));
#209 = CARTESIAN_POINT('',(14.756904945886,1.98403084227,65.618177662725
    ));
#210 = CARTESIAN_POINT('',(14.744683480387,1.994654282817,
    65.711540464585));
#211 = CARTESIAN_POINT('',(14.738533865071,2.,65.805609126609));
#212 = CARTESIAN_POINT('',(14.738533865071,2.,65.961450675437));
#213 = CARTESIAN_POINT('',(14.741139949237,1.997734237104,
    66.022852176263));
#214 = CARTESIAN_POINT('',(14.746346129532,1.993209751646,
    66.084061206532));
#215 = CARTESIAN_POINT('',(14.754071100968,1.986448864356,
    66.144916968136));
#216 = CARTESIAN_POINT('',(14.764162747308,1.97749889352,66.205241071792
    ));
#217 = CARTESIAN_POINT('',(14.783009599213,1.960473423262,
    66.297006864449));
#218 = CARTESIAN_POINT('',(14.790245129347,1.953888925944,
    66.328976306443));
#219 = CARTESIAN_POINT('',(14.798080016958,1.946696384212,
    66.360734893103));
#220 = CARTESIAN_POINT('',(14.806482747061,1.938904681501,
    66.392269998945));
#221 = CARTESIAN_POINT('',(14.815419509903,1.930523580661,
    66.423567253905));
#222 = CARTESIAN_POINT('',(14.858590428524,1.889525391935,
    66.565614016539));
#223 = CARTESIAN_POINT('',(14.898634625521,1.850144963164,
    66.673173970853));
#224 = CARTESIAN_POINT('',(14.943522650465,1.803762455895,
    66.777308053473));
#225 = CARTESIAN_POINT('',(14.991880181757,1.750523543352,
    66.877935564125));
#226 = CARTESIAN_POINT('',(15.042529233377,1.690487889645,
    66.974892028738));
#227 = CARTESIAN_POINT('',(15.103603592162,1.611699848311,
    67.084413256022));
#228 = CARTESIAN_POINT('',(15.112823384147,1.599640077084,
    67.100754787995));
#229 = CARTESIAN_POINT('',(15.12207833827,1.587360838383,67.116976528088
    ));
#230 = CARTESIAN_POINT('',(15.131363002263,1.574860912405,
    67.133077366099));
#231 = CARTESIAN_POINT('',(15.1406719937,1.56213892316,67.149056025627)
  );
#232 = CARTESIAN_POINT('',(15.15,1.549193338483,67.164911064067));
#233 = ORIENTED_EDGE('',*,*,#234,.T.);
#234 = EDGE_CURVE('',#193,#125,#235,.T.);
#235 = CIRCLE('',#236,2.);
#236 = AXIS2_PLACEMENT_3D('',#237,#238,#239);
#237 = CARTESIAN_POINT('',(15.15,0.,65.9));
#238 = DIRECTION('',(1.,0.,0.));
#239 = DIRECTION('',(-0.,0.,1.));
#240 = ORIENTED_EDGE('',*,*,#124,.T.);
#241 = ORIENTED_EDGE('',*,*,#39,.F.);
#242 = CYLINDRICAL_SURFACE('',#243,2.);
#243 = AXIS2_PLACEMENT_3D('',#244,#245,#246);
#244 = CARTESIAN_POINT('',(13.,0.,65.9));
#245 = DIRECTION('',(1.,0.,0.));
#246 = DIRECTION('',(-0.,0.,1.));
#247 = ADVANCED_FACE('',(#248,#251),#270,.F.);
#248 = FACE_BOUND('',#249,.F.);
#249 = EDGE_LOOP('',(#250));
#250 = ORIENTED_EDGE('',*,*,#78,.T.);
#251 = FACE_BOUND('',#252,.F.);
#252 = EDGE_LOOP('',(#253,#264));
#253 = ORIENTED_EDGE('',*,*,#254,.F.);
#254 = EDGE_CURVE('',#255,#257,#259,.T.);
#255 = VERTEX_POINT('',#256);
#256 = CARTESIAN_POINT('',(15.15,1.549193338483,59.4));
#257 = VERTEX_POINT('',#258);
#258 = CARTESIAN_POINT('',(15.15,-1.549193338483,59.4));
#259 = CIRCLE('',#260,2.65);
#260 = AXIS2_PLACEMENT_3D('',#261,#262,#263);
#261 = CARTESIAN_POINT('',(13.,0.,59.4));
#262 = DIRECTION('',(0.,0.,1.));
#263 = DIRECTION('',(1.,0.,-0.));
#264 = ORIENTED_EDGE('',*,*,#265,.F.);
#265 = EDGE_CURVE('',#257,#255,#266,.T.);
#266 = LINE('',#267,#268);
#267 = CARTESIAN_POINT('',(15.15,-1.825,59.4));
#268 = VECTOR('',#269,1.);
#269 = DIRECTION('',(-0.,1.,0.));
#270 = PLANE('',#271);
#271 = AXIS2_PLACEMENT_3D('',#272,#273,#274);
#272 = CARTESIAN_POINT('',(13.,0.,59.4));
#273 = DIRECTION('',(0.,0.,1.));
#274 = DIRECTION('',(1.,0.,-0.));
#275 = ADVANCED_FACE('',(#276,#287,#298,#309,#312),#323,.F.);
#276 = FACE_BOUND('',#277,.F.);
#277 = EDGE_LOOP('',(#278));
#278 = ORIENTED_EDGE('',*,*,#279,.T.);
#279 = EDGE_CURVE('',#280,#280,#282,.T.);
#280 = VERTEX_POINT('',#281);
#281 = CARTESIAN_POINT('',(33.,-4.898587196589E-15,72.4));
#282 = CIRCLE('',#283,20.);
#283 = AXIS2_PLACEMENT_3D('',#284,#285,#286);
#284 = CARTESIAN_POINT('',(13.,0.,72.4));
#285 = DIRECTION('',(0.,0.,1.));
#286 = DIRECTION('',(1.,0.,-0.));
#287 = FACE_BOUND('',#288,.F.);
#288 = EDGE_LOOP('',(#289));
#289 = ORIENTED_EDGE('',*,*,#290,.F.);
#290 = EDGE_CURVE('',#291,#291,#293,.T.);
#291 = VERTEX_POINT('',#292);
#292 = CARTESIAN_POINT('',(15.,-14.,72.4));
#293 = CIRCLE('',#294,2.);
#294 = AXIS2_PLACEMENT_3D('',#295,#296,#297);
#295 = CARTESIAN_POINT('',(13.,-14.,72.4));
#296 = DIRECTION('',(0.,0.,1.));
#297 = DIRECTION('',(1.,0.,-0.));
#298 = FACE_BOUND('',#299,.F.);
#299 = EDGE_LOOP('',(#300));
#300 = ORIENTED_EDGE('',*,*,#301,.F.);
#301 = EDGE_CURVE('',#302,#302,#304,.T.);
#302 = VERTEX_POINT('',#303);
#303 = CARTESIAN_POINT('',(2.875644347018,7.,72.4));
#304 = CIRCLE('',#305,2.);
#305 = AXIS2_PLACEMENT_3D('',#306,#307,#308);
#306 = CARTESIAN_POINT('',(0.875644347018,7.,72.4));
#307 = DIRECTION('',(0.,0.,1.));
#308 = DIRECTION('',(1.,0.,-0.));
#309 = FACE_BOUND('',#310,.F.);
#310 = EDGE_LOOP('',(#311));
#311 = ORIENTED_EDGE('',*,*,#31,.F.);
#312 = FACE_BOUND('',#313,.F.);
#313 = EDGE_LOOP('',(#314));
#314 = ORIENTED_EDGE('',*,*,#315,.F.);
#315 = EDGE_CURVE('',#316,#316,#318,.T.);
#316 = VERTEX_POINT('',#317);
#317 = CARTESIAN_POINT('',(27.124355652982,7.,72.4));
#318 = CIRCLE('',#319,2.);
#319 = AXIS2_PLACEMENT_3D('',#320,#321,#322);
#320 = CARTESIAN_POINT('',(25.124355652982,7.,72.4));
#321 = DIRECTION('',(0.,0.,1.));
#322 = DIRECTION('',(1.,0.,-0.));
#323 = PLANE('',#324);
#324 = AXIS2_PLACEMENT_3D('',#325,#326,#327);
#325 = CARTESIAN_POINT('',(13.,0.,72.4));
#326 = DIRECTION('',(0.,0.,1.));
#327 = DIRECTION('',(1.,0.,-0.));
#328 = ADVANCED_FACE('',(#329),#355,.F.);
#329 = FACE_BOUND('',#330,.F.);
#330 = EDGE_LOOP('',(#331,#339,#340,#341,#349));
#331 = ORIENTED_EDGE('',*,*,#332,.F.);
#332 = EDGE_CURVE('',#133,#333,#335,.T.);
#333 = VERTEX_POINT('',#334);
#334 = CARTESIAN_POINT('',(15.15,-1.549193338483,77.9));
#335 = LINE('',#336,#337);
#336 = CARTESIAN_POINT('',(15.15,-1.549193338483,58.4));
#337 = VECTOR('',#338,1.);
#338 = DIRECTION('',(0.,0.,1.));
#339 = ORIENTED_EDGE('',*,*,#132,.F.);
#340 = ORIENTED_EDGE('',*,*,#234,.F.);
#341 = ORIENTED_EDGE('',*,*,#342,.T.);
#342 = EDGE_CURVE('',#193,#343,#345,.T.);
#343 = VERTEX_POINT('',#344);
#344 = CARTESIAN_POINT('',(15.15,1.549193338483,77.9));
#345 = LINE('',#346,#347);
#346 = CARTESIAN_POINT('',(15.15,1.549193338483,58.4));
#347 = VECTOR('',#348,1.);
#348 = DIRECTION('',(0.,0.,1.));
#349 = ORIENTED_EDGE('',*,*,#350,.F.);
#350 = EDGE_CURVE('',#333,#343,#351,.T.);
#351 = LINE('',#352,#353);
#352 = CARTESIAN_POINT('',(15.15,-1.825,77.9));
#353 = VECTOR('',#354,1.);
#354 = DIRECTION('',(-0.,1.,0.));
#355 = PLANE('',#356);
#356 = AXIS2_PLACEMENT_3D('',#357,#358,#359);
#357 = CARTESIAN_POINT('',(15.15,-3.65,57.4));
#358 = DIRECTION('',(1.,0.,-0.));
#359 = DIRECTION('',(0.,0.,1.));
#360 = ADVANCED_FACE('',(#361),#387,.F.);
#361 = FACE_BOUND('',#362,.F.);
#362 = EDGE_LOOP('',(#363,#370,#371,#372,#378,#379,#385,#386));
#363 = ORIENTED_EDGE('',*,*,#364,.F.);
#364 = EDGE_CURVE('',#343,#333,#365,.T.);
#365 = CIRCLE('',#366,2.65);
#366 = AXIS2_PLACEMENT_3D('',#367,#368,#369);
#367 = CARTESIAN_POINT('',(13.,0.,77.9));
#368 = DIRECTION('',(0.,0.,1.));
#369 = DIRECTION('',(1.,0.,-0.));
#370 = ORIENTED_EDGE('',*,*,#342,.F.);
#371 = ORIENTED_EDGE('',*,*,#192,.F.);
#372 = ORIENTED_EDGE('',*,*,#373,.F.);
#373 = EDGE_CURVE('',#255,#184,#374,.T.);
#374 = LINE('',#375,#376);
#375 = CARTESIAN_POINT('',(15.15,1.549193338483,58.4));
#376 = VECTOR('',#377,1.);
#377 = DIRECTION('',(0.,0.,1.));
#378 = ORIENTED_EDGE('',*,*,#254,.T.);
#379 = ORIENTED_EDGE('',*,*,#380,.T.);
#380 = EDGE_CURVE('',#257,#142,#381,.T.);
#381 = LINE('',#382,#383);
#382 = CARTESIAN_POINT('',(15.15,-1.549193338483,58.4));
#383 = VECTOR('',#384,1.);
#384 = DIRECTION('',(0.,0.,1.));
#385 = ORIENTED_EDGE('',*,*,#141,.F.);
#386 = ORIENTED_EDGE('',*,*,#332,.T.);
#387 = CYLINDRICAL_SURFACE('',#388,2.65);
#388 = AXIS2_PLACEMENT_3D('',#389,#390,#391);
#389 = CARTESIAN_POINT('',(13.,0.,58.4));
#390 = DIRECTION('',(0.,0.,1.));
#391 = DIRECTION('',(1.,0.,-0.));
#392 = ADVANCED_FACE('',(#393),#399,.F.);
#393 = FACE_BOUND('',#394,.F.);
#394 = EDGE_LOOP('',(#395,#396,#397,#398));
#395 = ORIENTED_EDGE('',*,*,#380,.F.);
#396 = ORIENTED_EDGE('',*,*,#265,.T.);
#397 = ORIENTED_EDGE('',*,*,#373,.T.);
#398 = ORIENTED_EDGE('',*,*,#183,.F.);
#399 = PLANE('',#400);
#400 = AXIS2_PLACEMENT_3D('',#401,#402,#403);
#401 = CARTESIAN_POINT('',(15.15,-3.65,57.4));
#402 = DIRECTION('',(1.,0.,-0.));
#403 = DIRECTION('',(0.,0.,1.));
#404 = ADVANCED_FACE('',(#405),#424,.T.);
#405 = FACE_BOUND('',#406,.T.);
#406 = EDGE_LOOP('',(#407,#416,#422,#423));
#407 = ORIENTED_EDGE('',*,*,#408,.F.);
#408 = EDGE_CURVE('',#409,#409,#411,.T.);
#409 = VERTEX_POINT('',#410);
#410 = CARTESIAN_POINT('',(33.,-4.898587196589E-15,78.4));
#411 = CIRCLE('',#412,20.);
#412 = AXIS2_PLACEMENT_3D('',#413,#414,#415);
#413 = CARTESIAN_POINT('',(13.,0.,78.4));
#414 = DIRECTION('',(0.,0.,1.));
#415 = DIRECTION('',(1.,0.,-0.));
#416 = ORIENTED_EDGE('',*,*,#417,.F.);
#417 = EDGE_CURVE('',#280,#409,#418,.T.);
#418 = LINE('',#419,#420);
#419 = CARTESIAN_POINT('',(33.,-4.898587196589E-15,72.4));
#420 = VECTOR('',#421,1.);
#421 = DIRECTION('',(0.,0.,1.));
#422 = ORIENTED_EDGE('',*,*,#279,.T.);
#423 = ORIENTED_EDGE('',*,*,#417,.T.);
#424 = CYLINDRICAL_SURFACE('',#425,20.);
#425 = AXIS2_PLACEMENT_3D('',#426,#427,#428);
#426 = CARTESIAN_POINT('',(13.,0.,72.4));
#427 = DIRECTION('',(0.,0.,1.));
#428 = DIRECTION('',(1.,0.,-0.));
#429 = ADVANCED_FACE('',(#430),#449,.F.);
#430 = FACE_BOUND('',#431,.F.);
#431 = EDGE_LOOP('',(#432,#441,#447,#448));
#432 = ORIENTED_EDGE('',*,*,#433,.F.);
#433 = EDGE_CURVE('',#434,#434,#436,.T.);
#434 = VERTEX_POINT('',#435);
#435 = CARTESIAN_POINT('',(15.,-14.,78.4));
#436 = CIRCLE('',#437,2.);
#437 = AXIS2_PLACEMENT_3D('',#438,#439,#440);
#438 = CARTESIAN_POINT('',(13.,-14.,78.4));
#439 = DIRECTION('',(0.,0.,1.));
#440 = DIRECTION('',(1.,0.,-0.));
#441 = ORIENTED_EDGE('',*,*,#442,.F.);
#442 = EDGE_CURVE('',#291,#434,#443,.T.);
#443 = LINE('',#444,#445);
#444 = CARTESIAN_POINT('',(15.,-14.,72.4));
#445 = VECTOR('',#446,1.);
#446 = DIRECTION('',(0.,0.,1.));
#447 = ORIENTED_EDGE('',*,*,#290,.T.);
#448 = ORIENTED_EDGE('',*,*,#442,.T.);
#449 = CYLINDRICAL_SURFACE('',#450,2.);
#450 = AXIS2_PLACEMENT_3D('',#451,#452,#453);
#451 = CARTESIAN_POINT('',(13.,-14.,72.4));
#452 = DIRECTION('',(0.,0.,1.));
#453 = DIRECTION('',(1.,0.,-0.));
#454 = ADVANCED_FACE('',(#455),#474,.F.);
#455 = FACE_BOUND('',#456,.F.);
#456 = EDGE_LOOP('',(#457,#466,#472,#473));
#457 = ORIENTED_EDGE('',*,*,#458,.F.);
#458 = EDGE_CURVE('',#459,#459,#461,.T.);
#459 = VERTEX_POINT('',#460);
#460 = CARTESIAN_POINT('',(2.875644347018,7.,78.4));
#461 = CIRCLE('',#462,2.);
#462 = AXIS2_PLACEMENT_3D('',#463,#464,#465);
#463 = CARTESIAN_POINT('',(0.875644347018,7.,78.4));
#464 = DIRECTION('',(0.,0.,1.));
#465 = DIRECTION('',(1.,0.,-0.));
#466 = ORIENTED_EDGE('',*,*,#467,.F.);
#467 = EDGE_CURVE('',#302,#459,#468,.T.);
#468 = LINE('',#469,#470);
#469 = CARTESIAN_POINT('',(2.875644347018,7.,72.4));
#470 = VECTOR('',#471,1.);
#471 = DIRECTION('',(0.,0.,1.));
#472 = ORIENTED_EDGE('',*,*,#301,.T.);
#473 = ORIENTED_EDGE('',*,*,#467,.T.);
#474 = CYLINDRICAL_SURFACE('',#475,2.);
#475 = AXIS2_PLACEMENT_3D('',#476,#477,#478);
#476 = CARTESIAN_POINT('',(0.875644347018,7.,72.4));
#477 = DIRECTION('',(0.,0.,1.));
#478 = DIRECTION('',(1.,0.,-0.));
#479 = ADVANCED_FACE('',(#480),#499,.F.);
#480 = FACE_BOUND('',#481,.F.);
#481 = EDGE_LOOP('',(#482,#491,#497,#498));
#482 = ORIENTED_EDGE('',*,*,#483,.F.);
#483 = EDGE_CURVE('',#484,#484,#486,.T.);
#484 = VERTEX_POINT('',#485);
#485 = CARTESIAN_POINT('',(27.124355652982,7.,78.4));
#486 = CIRCLE('',#487,2.);
#487 = AXIS2_PLACEMENT_3D('',#488,#489,#490);
#488 = CARTESIAN_POINT('',(25.124355652982,7.,78.4));
#489 = DIRECTION('',(0.,0.,1.));
#490 = DIRECTION('',(1.,0.,-0.));
#491 = ORIENTED_EDGE('',*,*,#492,.F.);
#492 = EDGE_CURVE('',#316,#484,#493,.T.);
#493 = LINE('',#494,#495);
#494 = CARTESIAN_POINT('',(27.124355652982,7.,72.4));
#495 = VECTOR('',#496,1.);
#496 = DIRECTION('',(0.,0.,1.));
#497 = ORIENTED_EDGE('',*,*,#315,.T.);
#498 = ORIENTED_EDGE('',*,*,#492,.T.);
#499 = CYLINDRICAL_SURFACE('',#500,2.);
#500 = AXIS2_PLACEMENT_3D('',#501,#502,#503);
#501 = CARTESIAN_POINT('',(25.124355652982,7.,72.4));
#502 = DIRECTION('',(0.,0.,1.));
#503 = DIRECTION('',(1.,0.,-0.));
#504 = ADVANCED_FACE('',(#505),#509,.F.);
#505 = FACE_BOUND('',#506,.F.);
#506 = EDGE_LOOP('',(#507,#508));
#507 = ORIENTED_EDGE('',*,*,#350,.T.);
#508 = ORIENTED_EDGE('',*,*,#364,.T.);
#509 = PLANE('',#510);
#510 = AXIS2_PLACEMENT_3D('',#511,#512,#513);
#511 = CARTESIAN_POINT('',(13.,0.,77.9));
#512 = DIRECTION('',(0.,0.,1.));
#513 = DIRECTION('',(1.,0.,-0.));
#514 = ADVANCED_FACE('',(#515,#518,#521,#524),#527,.T.);
#515 = FACE_BOUND('',#516,.T.);
#516 = EDGE_LOOP('',(#517));
#517 = ORIENTED_EDGE('',*,*,#408,.T.);
#518 = FACE_BOUND('',#519,.T.);
#519 = EDGE_LOOP('',(#520));
#520 = ORIENTED_EDGE('',*,*,#433,.F.);
#521 = FACE_BOUND('',#522,.T.);
#522 = EDGE_LOOP('',(#523));
#523 = ORIENTED_EDGE('',*,*,#458,.F.);
#524 = FACE_BOUND('',#525,.T.);
#525 = EDGE_LOOP('',(#526));
#526 = ORIENTED_EDGE('',*,*,#483,.F.);
#527 = PLANE('',#528);
#528 = AXIS2_PLACEMENT_3D('',#529,#530,#531);
#529 = CARTESIAN_POINT('',(13.,0.,78.4));
#530 = DIRECTION('',(0.,0.,1.));
#531 = DIRECTION('',(1.,0.,-0.));
#532 = ( GEOMETRIC_REPRESENTATION_CONTEXT(3) 
GLOBAL_UNCERTAINTY_ASSIGNED_CONTEXT((#536)) GLOBAL_UNIT_ASSIGNED_CONTEXT
((#533,#534,#535)) REPRESENTATION_CONTEXT('Context #1',
  '3D Context with UNIT and UNCERTAINTY') );
#533 = ( LENGTH_UNIT() NAMED_UNIT(*) SI_UNIT(.MILLI.,.METRE.) );
#534 = ( NAMED_UNIT(*) PLANE_ANGLE_UNIT() SI_UNIT($,.RADIAN.) );
#535 = ( NAMED_UNIT(*) SI_UNIT($,.STERADIAN.) SOLID_ANGLE_UNIT() );
#536 = UNCERTAINTY_MEASURE_WITH_UNIT(LENGTH_MEASURE(1.E-07),#533,
  'distance_accuracy_value','confusion accuracy');
#537 = PRODUCT_RELATED_PRODUCT_CATEGORY('part',$,(#7));
ENDSEC;
END-ISO-10303-21;
