ISO-10303-21;
HEADER;
FILE_DESCRIPTION(('FreeCAD Model'),'2;1');
FILE_NAME('Open CASCADE Shape Model','2026-09-24T19:23:27',('FreeCAD'),(
    'FreeCAD'),'Open CASCADE STEP processor 7.8','FreeCAD','Unknown');
FILE_SCHEMA(('AUTOMOTIVE_DESIGN { 1 0 10303 214 1 1 1 1 }'));
ENDSEC;
DATA;
#1 = APPLICATION_PROTOCOL_DEFINITION('international standard',
  'automotive_design',2000,#2);
#2 = APPLICATION_CONTEXT(
  'core data for automotive mechanical design processes');
#3 = SHAPE_DEFINITION_REPRESENTATION(#4,#10);
#4 = PRODUCT_DEFINITION_SHAPE('','',#5);
#5 = PRODUCT_DEFINITION('design','',#6,#9);
#6 = PRODUCT_DEFINITION_FORMATION('','',#7);
#7 = PRODUCT('Open CASCADE STEP translator 7.8 5',
  'Open CASCADE STEP translator 7.8 5','',(#8));
#8 = PRODUCT_CONTEXT('',#2,'mechanical');
#9 = PRODUCT_DEFINITION_CONTEXT('part definition',#2,'design');
#10 = ADVANCED_BREP_SHAPE_REPRESENTATION('',(#11,#15),#1313);
#11 = AXIS2_PLACEMENT_3D('',#12,#13,#14);
#12 = CARTESIAN_POINT('',(0.,0.,0.));
#13 = DIRECTION('',(0.,0.,1.));
#14 = DIRECTION('',(1.,0.,-0.));
#15 = MANIFOLD_SOLID_BREP('',#16);
#16 = CLOSED_SHELL('',(#17,#57,#88,#119,#168,#217,#343,#360,#377,#536,
    #555,#572,#621,#645,#692,#709,#758,#807,#824,#849,#874,#899,#916,
    #933,#958,#983,#1008,#1033,#1058,#1083,#1100,#1117,#1129,#1146,#1163
    ,#1175,#1200,#1225,#1250,#1259,#1271,#1280,#1292,#1304));
#17 = ADVANCED_FACE('',(#18),#52,.T.);
#18 = FACE_BOUND('',#19,.T.);
#19 = EDGE_LOOP('',(#20,#30,#38,#46));
#20 = ORIENTED_EDGE('',*,*,#21,.T.);
#21 = EDGE_CURVE('',#22,#24,#26,.T.);
#22 = VERTEX_POINT('',#23);
#23 = CARTESIAN_POINT('',(4.,46.8,86.4));
#24 = VERTEX_POINT('',#25);
#25 = CARTESIAN_POINT('',(-4.,46.8,86.4));
#26 = LINE('',#27,#28);
#27 = CARTESIAN_POINT('',(4.,46.8,86.4));
#28 = VECTOR('',#29,1.);
#29 = DIRECTION('',(-1.,1.110223024625E-16,0.));
#30 = ORIENTED_EDGE('',*,*,#31,.T.);
#31 = EDGE_CURVE('',#24,#32,#34,.T.);
#32 = VERTEX_POINT('',#33);
#33 = CARTESIAN_POINT('',(-4.,45.9,86.4));
#34 = LINE('',#35,#36);
#35 = CARTESIAN_POINT('',(-4.,46.8,86.4));
#36 = VECTOR('',#37,1.);
#37 = DIRECTION('',(-1.110223024625E-16,-1.,0.));
#38 = ORIENTED_EDGE('',*,*,#39,.F.);
#39 = EDGE_CURVE('',#40,#32,#42,.T.);
#40 = VERTEX_POINT('',#41);
#41 = CARTESIAN_POINT('',(4.,45.9,86.4));
#42 = LINE('',#43,#44);
#43 = CARTESIAN_POINT('',(4.,45.9,86.4));
#44 = VECTOR('',#45,1.);
#45 = DIRECTION('',(-1.,1.110223024625E-16,0.));
#46 = ORIENTED_EDGE('',*,*,#47,.F.);
#47 = EDGE_CURVE('',#22,#40,#48,.T.);
#48 = LINE('',#49,#50);
#49 = CARTESIAN_POINT('',(4.,46.8,86.4));
#50 = VECTOR('',#51,1.);
#51 = DIRECTION('',(-1.110223024625E-16,-1.,0.));
#52 = PLANE('',#53);
#53 = AXIS2_PLACEMENT_3D('',#54,#55,#56);
#54 = CARTESIAN_POINT('',(4.,46.8,86.4));
#55 = DIRECTION('',(0.,0.,1.));
#56 = DIRECTION('',(-1.110223024625E-16,-1.,0.));
#57 = ADVANCED_FACE('',(#58),#83,.T.);
#58 = FACE_BOUND('',#59,.T.);
#59 = EDGE_LOOP('',(#60,#68,#76,#82));
#60 = ORIENTED_EDGE('',*,*,#61,.F.);
#61 = EDGE_CURVE('',#62,#22,#64,.T.);
#62 = VERTEX_POINT('',#63);
#63 = CARTESIAN_POINT('',(4.,46.8,78.4));
#64 = LINE('',#65,#66);
#65 = CARTESIAN_POINT('',(4.,46.8,78.4));
#66 = VECTOR('',#67,1.);
#67 = DIRECTION('',(0.,0.,1.));
#68 = ORIENTED_EDGE('',*,*,#69,.T.);
#69 = EDGE_CURVE('',#62,#70,#72,.T.);
#70 = VERTEX_POINT('',#71);
#71 = CARTESIAN_POINT('',(-4.,46.8,78.4));
#72 = LINE('',#73,#74);
#73 = CARTESIAN_POINT('',(4.,46.8,78.4));
#74 = VECTOR('',#75,1.);
#75 = DIRECTION('',(-1.,1.110223024625E-16,0.));
#76 = ORIENTED_EDGE('',*,*,#77,.T.);
#77 = EDGE_CURVE('',#70,#24,#78,.T.);
#78 = LINE('',#79,#80);
#79 = CARTESIAN_POINT('',(-4.,46.8,78.4));
#80 = VECTOR('',#81,1.);
#81 = DIRECTION('',(0.,0.,1.));
#82 = ORIENTED_EDGE('',*,*,#21,.F.);
#83 = PLANE('',#84);
#84 = AXIS2_PLACEMENT_3D('',#85,#86,#87);
#85 = CARTESIAN_POINT('',(5.329070518201E-15,46.8,82.4));
#86 = DIRECTION('',(0.,1.,0.));
#87 = DIRECTION('',(0.,-0.,1.));
#88 = ADVANCED_FACE('',(#89),#114,.T.);
#89 = FACE_BOUND('',#90,.T.);
#90 = EDGE_LOOP('',(#91,#92,#100,#108));
#91 = ORIENTED_EDGE('',*,*,#39,.T.);
#92 = ORIENTED_EDGE('',*,*,#93,.T.);
#93 = EDGE_CURVE('',#32,#94,#96,.T.);
#94 = VERTEX_POINT('',#95);
#95 = CARTESIAN_POINT('',(-4.,44.7,84.15));
#96 = LINE('',#97,#98);
#97 = CARTESIAN_POINT('',(-4.,45.9,86.4));
#98 = VECTOR('',#99,1.);
#99 = DIRECTION('',(-5.224578939413E-17,-0.470588235294,-0.882352941176)
  );
#100 = ORIENTED_EDGE('',*,*,#101,.F.);
#101 = EDGE_CURVE('',#102,#94,#104,.T.);
#102 = VERTEX_POINT('',#103);
#103 = CARTESIAN_POINT('',(4.,44.7,84.15));
#104 = LINE('',#105,#106);
#105 = CARTESIAN_POINT('',(4.,44.7,84.15));
#106 = VECTOR('',#107,1.);
#107 = DIRECTION('',(-1.,1.110223024625E-16,0.));
#108 = ORIENTED_EDGE('',*,*,#109,.F.);
#109 = EDGE_CURVE('',#40,#102,#110,.T.);
#110 = LINE('',#111,#112);
#111 = CARTESIAN_POINT('',(4.,45.9,86.4));
#112 = VECTOR('',#113,1.);
#113 = DIRECTION('',(-5.224578939413E-17,-0.470588235294,-0.882352941176
    ));
#114 = PLANE('',#115);
#115 = AXIS2_PLACEMENT_3D('',#116,#117,#118);
#116 = CARTESIAN_POINT('',(4.,45.9,86.4));
#117 = DIRECTION('',(-9.796085511398E-17,-0.882352941176,0.470588235294)
  );
#118 = DIRECTION('',(-5.224578939413E-17,-0.470588235294,-0.882352941176
    ));
#119 = ADVANCED_FACE('',(#120),#163,.T.);
#120 = FACE_BOUND('',#121,.T.);
#121 = EDGE_LOOP('',(#122,#130,#131,#132,#133,#141,#149,#157));
#122 = ORIENTED_EDGE('',*,*,#123,.T.);
#123 = EDGE_CURVE('',#124,#62,#126,.T.);
#124 = VERTEX_POINT('',#125);
#125 = CARTESIAN_POINT('',(4.,41.809089920734,78.4));
#126 = LINE('',#127,#128);
#127 = CARTESIAN_POINT('',(4.,38.,78.4));
#128 = VECTOR('',#129,1.);
#129 = DIRECTION('',(1.110223024625E-16,1.,0.));
#130 = ORIENTED_EDGE('',*,*,#61,.T.);
#131 = ORIENTED_EDGE('',*,*,#47,.T.);
#132 = ORIENTED_EDGE('',*,*,#109,.T.);
#133 = ORIENTED_EDGE('',*,*,#134,.T.);
#134 = EDGE_CURVE('',#102,#135,#137,.T.);
#135 = VERTEX_POINT('',#136);
#136 = CARTESIAN_POINT('',(4.,45.2,82.9));
#137 = LINE('',#138,#139);
#138 = CARTESIAN_POINT('',(4.,44.7,84.15));
#139 = VECTOR('',#140,1.);
#140 = DIRECTION('',(4.123264800194E-17,0.371390676354,-0.928476690885)
  );
#141 = ORIENTED_EDGE('',*,*,#142,.T.);
#142 = EDGE_CURVE('',#135,#143,#145,.T.);
#143 = VERTEX_POINT('',#144);
#144 = CARTESIAN_POINT('',(4.,45.2,81.4));
#145 = LINE('',#146,#147);
#146 = CARTESIAN_POINT('',(4.,45.2,82.9));
#147 = VECTOR('',#148,1.);
#148 = DIRECTION('',(0.,0.,-1.));
#149 = ORIENTED_EDGE('',*,*,#150,.F.);
#150 = EDGE_CURVE('',#151,#143,#153,.T.);
#151 = VERTEX_POINT('',#152);
#152 = CARTESIAN_POINT('',(4.,41.809089920734,81.4));
#153 = LINE('',#154,#155);
#154 = CARTESIAN_POINT('',(4.,38.,81.4));
#155 = VECTOR('',#156,1.);
#156 = DIRECTION('',(1.110223024625E-16,1.,0.));
#157 = ORIENTED_EDGE('',*,*,#158,.F.);
#158 = EDGE_CURVE('',#124,#151,#159,.T.);
#159 = LINE('',#160,#161);
#160 = CARTESIAN_POINT('',(4.,41.809089920734,78.4));
#161 = VECTOR('',#162,1.);
#162 = DIRECTION('',(0.,0.,1.));
#163 = PLANE('',#164);
#164 = AXIS2_PLACEMENT_3D('',#165,#166,#167);
#165 = CARTESIAN_POINT('',(4.,44.941508473471,81.668492821347));
#166 = DIRECTION('',(1.,0.,0.));
#167 = DIRECTION('',(-0.,0.,1.));
#168 = ADVANCED_FACE('',(#169),#212,.T.);
#169 = FACE_BOUND('',#170,.T.);
#170 = EDGE_LOOP('',(#171,#179,#187,#195,#203,#209,#210,#211));
#171 = ORIENTED_EDGE('',*,*,#172,.F.);
#172 = EDGE_CURVE('',#173,#70,#175,.T.);
#173 = VERTEX_POINT('',#174);
#174 = CARTESIAN_POINT('',(-4.,41.809089920734,78.4));
#175 = LINE('',#176,#177);
#176 = CARTESIAN_POINT('',(-4.,38.,78.4));
#177 = VECTOR('',#178,1.);
#178 = DIRECTION('',(1.110223024625E-16,1.,0.));
#179 = ORIENTED_EDGE('',*,*,#180,.T.);
#180 = EDGE_CURVE('',#173,#181,#183,.T.);
#181 = VERTEX_POINT('',#182);
#182 = CARTESIAN_POINT('',(-4.,41.809089920734,81.4));
#183 = LINE('',#184,#185);
#184 = CARTESIAN_POINT('',(-4.,41.809089920734,78.4));
#185 = VECTOR('',#186,1.);
#186 = DIRECTION('',(0.,0.,1.));
#187 = ORIENTED_EDGE('',*,*,#188,.T.);
#188 = EDGE_CURVE('',#181,#189,#191,.T.);
#189 = VERTEX_POINT('',#190);
#190 = CARTESIAN_POINT('',(-4.,45.2,81.4));
#191 = LINE('',#192,#193);
#192 = CARTESIAN_POINT('',(-4.,38.,81.4));
#193 = VECTOR('',#194,1.);
#194 = DIRECTION('',(1.110223024625E-16,1.,0.));
#195 = ORIENTED_EDGE('',*,*,#196,.F.);
#196 = EDGE_CURVE('',#197,#189,#199,.T.);
#197 = VERTEX_POINT('',#198);
#198 = CARTESIAN_POINT('',(-4.,45.2,82.9));
#199 = LINE('',#200,#201);
#200 = CARTESIAN_POINT('',(-4.,45.2,82.9));
#201 = VECTOR('',#202,1.);
#202 = DIRECTION('',(0.,0.,-1.));
#203 = ORIENTED_EDGE('',*,*,#204,.F.);
#204 = EDGE_CURVE('',#94,#197,#205,.T.);
#205 = LINE('',#206,#207);
#206 = CARTESIAN_POINT('',(-4.,44.7,84.15));
#207 = VECTOR('',#208,1.);
#208 = DIRECTION('',(4.123264800194E-17,0.371390676354,-0.928476690885)
  );
#209 = ORIENTED_EDGE('',*,*,#93,.F.);
#210 = ORIENTED_EDGE('',*,*,#31,.F.);
#211 = ORIENTED_EDGE('',*,*,#77,.F.);
#212 = PLANE('',#213);
#213 = AXIS2_PLACEMENT_3D('',#214,#215,#216);
#214 = CARTESIAN_POINT('',(-4.,44.941508473471,81.668492821347));
#215 = DIRECTION('',(-1.,-0.,-0.));
#216 = DIRECTION('',(0.,0.,-1.));
#217 = ADVANCED_FACE('',(#218,#305,#316,#327),#338,.T.);
#218 = FACE_BOUND('',#219,.T.);
#219 = EDGE_LOOP('',(#220,#229,#238,#246,#254,#262,#271,#279,#287,#295,
    #302,#303,#304));
#220 = ORIENTED_EDGE('',*,*,#221,.F.);
#221 = EDGE_CURVE('',#222,#124,#224,.T.);
#222 = VERTEX_POINT('',#223);
#223 = CARTESIAN_POINT('',(42.,-1.028703311284E-14,78.4));
#224 = CIRCLE('',#225,42.);
#225 = AXIS2_PLACEMENT_3D('',#226,#227,#228);
#226 = CARTESIAN_POINT('',(0.,0.,78.4));
#227 = DIRECTION('',(0.,0.,1.));
#228 = DIRECTION('',(1.,0.,-0.));
#229 = ORIENTED_EDGE('',*,*,#230,.F.);
#230 = EDGE_CURVE('',#231,#222,#233,.T.);
#231 = VERTEX_POINT('',#232);
#232 = CARTESIAN_POINT('',(38.207733980464,-17.44044334522,78.4));
#233 = CIRCLE('',#234,42.);
#234 = AXIS2_PLACEMENT_3D('',#235,#236,#237);
#235 = CARTESIAN_POINT('',(0.,0.,78.4));
#236 = DIRECTION('',(0.,0.,1.));
#237 = DIRECTION('',(1.,0.,-0.));
#238 = ORIENTED_EDGE('',*,*,#239,.T.);
#239 = EDGE_CURVE('',#231,#240,#242,.T.);
#240 = VERTEX_POINT('',#241);
#241 = CARTESIAN_POINT('',(42.529988897112,-19.93589838486,78.4));
#242 = LINE('',#243,#244);
#243 = CARTESIAN_POINT('',(34.908965343809,-15.53589838486,78.4));
#244 = VECTOR('',#245,1.);
#245 = DIRECTION('',(0.866025403784,-0.5,0.));
#246 = ORIENTED_EDGE('',*,*,#247,.F.);
#247 = EDGE_CURVE('',#248,#240,#250,.T.);
#248 = VERTEX_POINT('',#249);
#249 = CARTESIAN_POINT('',(38.529988897112,-26.86410161513,78.4));
#250 = LINE('',#251,#252);
#251 = CARTESIAN_POINT('',(38.529988897112,-26.86410161513,78.4));
#252 = VECTOR('',#253,1.);
#253 = DIRECTION('',(0.5,0.866025403784,0.));
#254 = ORIENTED_EDGE('',*,*,#255,.F.);
#255 = EDGE_CURVE('',#256,#248,#258,.T.);
#256 = VERTEX_POINT('',#257);
#257 = CARTESIAN_POINT('',(34.207733980463,-24.3686465755,78.4));
#258 = LINE('',#259,#260);
#259 = CARTESIAN_POINT('',(30.908965343809,-22.46410161513,78.4));
#260 = VECTOR('',#261,1.);
#261 = DIRECTION('',(0.866025403784,-0.5,0.));
#262 = ORIENTED_EDGE('',*,*,#263,.F.);
#263 = EDGE_CURVE('',#264,#256,#266,.T.);
#264 = VERTEX_POINT('',#265);
#265 = CARTESIAN_POINT('',(-34.20773398046,-24.3686465755,78.4));
#266 = CIRCLE('',#267,42.);
#267 = AXIS2_PLACEMENT_3D('',#268,#269,#270);
#268 = CARTESIAN_POINT('',(0.,0.,78.4));
#269 = DIRECTION('',(0.,0.,1.));
#270 = DIRECTION('',(1.,0.,-0.));
#271 = ORIENTED_EDGE('',*,*,#272,.T.);
#272 = EDGE_CURVE('',#264,#273,#275,.T.);
#273 = VERTEX_POINT('',#274);
#274 = CARTESIAN_POINT('',(-38.52998889711,-26.86410161513,78.4));
#275 = LINE('',#276,#277);
#276 = CARTESIAN_POINT('',(-30.9089653438,-22.46410161513,78.4));
#277 = VECTOR('',#278,1.);
#278 = DIRECTION('',(-0.866025403784,-0.5,0.));
#279 = ORIENTED_EDGE('',*,*,#280,.F.);
#280 = EDGE_CURVE('',#281,#273,#283,.T.);
#281 = VERTEX_POINT('',#282);
#282 = CARTESIAN_POINT('',(-42.52998889711,-19.93589838486,78.4));
#283 = LINE('',#284,#285);
#284 = CARTESIAN_POINT('',(-42.52998889711,-19.93589838486,78.4));
#285 = VECTOR('',#286,1.);
#286 = DIRECTION('',(0.5,-0.866025403784,0.));
#287 = ORIENTED_EDGE('',*,*,#288,.F.);
#288 = EDGE_CURVE('',#289,#281,#291,.T.);
#289 = VERTEX_POINT('',#290);
#290 = CARTESIAN_POINT('',(-38.20773398046,-17.44044334522,78.4));
#291 = LINE('',#292,#293);
#292 = CARTESIAN_POINT('',(-34.9089653438,-15.53589838486,78.4));
#293 = VECTOR('',#294,1.);
#294 = DIRECTION('',(-0.866025403784,-0.5,0.));
#295 = ORIENTED_EDGE('',*,*,#296,.F.);
#296 = EDGE_CURVE('',#173,#289,#297,.T.);
#297 = CIRCLE('',#298,42.);
#298 = AXIS2_PLACEMENT_3D('',#299,#300,#301);
#299 = CARTESIAN_POINT('',(0.,0.,78.4));
#300 = DIRECTION('',(0.,0.,1.));
#301 = DIRECTION('',(1.,0.,-0.));
#302 = ORIENTED_EDGE('',*,*,#172,.T.);
#303 = ORIENTED_EDGE('',*,*,#69,.F.);
#304 = ORIENTED_EDGE('',*,*,#123,.F.);
#305 = FACE_BOUND('',#306,.T.);
#306 = EDGE_LOOP('',(#307));
#307 = ORIENTED_EDGE('',*,*,#308,.T.);
#308 = EDGE_CURVE('',#309,#309,#311,.T.);
#309 = VERTEX_POINT('',#310);
#310 = CARTESIAN_POINT('',(1.7,-14.,78.4));
#311 = CIRCLE('',#312,1.7);
#312 = AXIS2_PLACEMENT_3D('',#313,#314,#315);
#313 = CARTESIAN_POINT('',(-2.571758278209E-15,-14.,78.4));
#314 = DIRECTION('',(0.,0.,1.));
#315 = DIRECTION('',(1.,0.,-0.));
#316 = FACE_BOUND('',#317,.T.);
#317 = EDGE_LOOP('',(#318));
#318 = ORIENTED_EDGE('',*,*,#319,.T.);
#319 = EDGE_CURVE('',#320,#320,#322,.T.);
#320 = VERTEX_POINT('',#321);
#321 = CARTESIAN_POINT('',(13.824355652982,7.,78.4));
#322 = CIRCLE('',#323,1.7);
#323 = AXIS2_PLACEMENT_3D('',#324,#325,#326);
#324 = CARTESIAN_POINT('',(12.124355652982,7.,78.4));
#325 = DIRECTION('',(0.,0.,1.));
#326 = DIRECTION('',(1.,0.,-0.));
#327 = FACE_BOUND('',#328,.T.);
#328 = EDGE_LOOP('',(#329));
#329 = ORIENTED_EDGE('',*,*,#330,.T.);
#330 = EDGE_CURVE('',#331,#331,#333,.T.);
#331 = VERTEX_POINT('',#332);
#332 = CARTESIAN_POINT('',(-10.42435565298,7.,78.4));
#333 = CIRCLE('',#334,1.7);
#334 = AXIS2_PLACEMENT_3D('',#335,#336,#337);
#335 = CARTESIAN_POINT('',(-12.12435565298,7.,78.4));
#336 = DIRECTION('',(0.,0.,1.));
#337 = DIRECTION('',(1.,0.,-0.));
#338 = PLANE('',#339);
#339 = AXIS2_PLACEMENT_3D('',#340,#341,#342);
#340 = CARTESIAN_POINT('',(0.239286422682,8.296666090243E-02,78.4));
#341 = DIRECTION('',(-0.,-0.,-1.));
#342 = DIRECTION('',(-1.,0.,0.));
#343 = ADVANCED_FACE('',(#344),#355,.T.);
#344 = FACE_BOUND('',#345,.T.);
#345 = EDGE_LOOP('',(#346,#347,#348,#354));
#346 = ORIENTED_EDGE('',*,*,#101,.T.);
#347 = ORIENTED_EDGE('',*,*,#204,.T.);
#348 = ORIENTED_EDGE('',*,*,#349,.F.);
#349 = EDGE_CURVE('',#135,#197,#350,.T.);
#350 = LINE('',#351,#352);
#351 = CARTESIAN_POINT('',(4.,45.2,82.9));
#352 = VECTOR('',#353,1.);
#353 = DIRECTION('',(-1.,1.110223024625E-16,0.));
#354 = ORIENTED_EDGE('',*,*,#134,.F.);
#355 = PLANE('',#356);
#356 = AXIS2_PLACEMENT_3D('',#357,#358,#359);
#357 = CARTESIAN_POINT('',(4.,44.7,84.15));
#358 = DIRECTION('',(-1.030816200049E-16,-0.928476690885,-0.371390676354
    ));
#359 = DIRECTION('',(4.123264800194E-17,0.371390676354,-0.928476690885)
  );
#360 = ADVANCED_FACE('',(#361),#372,.T.);
#361 = FACE_BOUND('',#362,.T.);
#362 = EDGE_LOOP('',(#363,#364,#365,#371));
#363 = ORIENTED_EDGE('',*,*,#349,.T.);
#364 = ORIENTED_EDGE('',*,*,#196,.T.);
#365 = ORIENTED_EDGE('',*,*,#366,.F.);
#366 = EDGE_CURVE('',#143,#189,#367,.T.);
#367 = LINE('',#368,#369);
#368 = CARTESIAN_POINT('',(4.,45.2,81.4));
#369 = VECTOR('',#370,1.);
#370 = DIRECTION('',(-1.,1.110223024625E-16,0.));
#371 = ORIENTED_EDGE('',*,*,#142,.F.);
#372 = PLANE('',#373);
#373 = AXIS2_PLACEMENT_3D('',#374,#375,#376);
#374 = CARTESIAN_POINT('',(4.,45.2,82.9));
#375 = DIRECTION('',(-1.110223024625E-16,-1.,0.));
#376 = DIRECTION('',(0.,0.,-1.));
#377 = ADVANCED_FACE('',(#378,#465,#476,#487,#498,#509,#520),#531,.T.);
#378 = FACE_BOUND('',#379,.T.);
#379 = EDGE_LOOP('',(#380,#389,#390,#391,#392,#401,#409,#417,#425,#434,
    #442,#450,#458));
#380 = ORIENTED_EDGE('',*,*,#381,.T.);
#381 = EDGE_CURVE('',#382,#151,#384,.T.);
#382 = VERTEX_POINT('',#383);
#383 = CARTESIAN_POINT('',(42.,-1.028703311284E-14,81.4));
#384 = CIRCLE('',#385,42.);
#385 = AXIS2_PLACEMENT_3D('',#386,#387,#388);
#386 = CARTESIAN_POINT('',(0.,0.,81.4));
#387 = DIRECTION('',(0.,0.,1.));
#388 = DIRECTION('',(1.,0.,-0.));
#389 = ORIENTED_EDGE('',*,*,#150,.T.);
#390 = ORIENTED_EDGE('',*,*,#366,.T.);
#391 = ORIENTED_EDGE('',*,*,#188,.F.);
#392 = ORIENTED_EDGE('',*,*,#393,.T.);
#393 = EDGE_CURVE('',#181,#394,#396,.T.);
#394 = VERTEX_POINT('',#395);
#395 = CARTESIAN_POINT('',(-38.20773398046,-17.44044334522,81.4));
#396 = CIRCLE('',#397,42.);
#397 = AXIS2_PLACEMENT_3D('',#398,#399,#400);
#398 = CARTESIAN_POINT('',(0.,0.,81.4));
#399 = DIRECTION('',(0.,0.,1.));
#400 = DIRECTION('',(1.,0.,-0.));
#401 = ORIENTED_EDGE('',*,*,#402,.T.);
#402 = EDGE_CURVE('',#394,#403,#405,.T.);
#403 = VERTEX_POINT('',#404);
#404 = CARTESIAN_POINT('',(-41.14434825105,-19.13589838486,81.4));
#405 = LINE('',#406,#407);
#406 = CARTESIAN_POINT('',(-34.9089653438,-15.53589838486,81.4));
#407 = VECTOR('',#408,1.);
#408 = DIRECTION('',(-0.866025403784,-0.5,0.));
#409 = ORIENTED_EDGE('',*,*,#410,.T.);
#410 = EDGE_CURVE('',#403,#411,#413,.T.);
#411 = VERTEX_POINT('',#412);
#412 = CARTESIAN_POINT('',(-37.14434825105,-26.06410161513,81.4));
#413 = LINE('',#414,#415);
#414 = CARTESIAN_POINT('',(-41.14434825105,-19.13589838486,81.4));
#415 = VECTOR('',#416,1.);
#416 = DIRECTION('',(0.5,-0.866025403784,0.));
#417 = ORIENTED_EDGE('',*,*,#418,.F.);
#418 = EDGE_CURVE('',#419,#411,#421,.T.);
#419 = VERTEX_POINT('',#420);
#420 = CARTESIAN_POINT('',(-34.20773398046,-24.3686465755,81.4));
#421 = LINE('',#422,#423);
#422 = CARTESIAN_POINT('',(-30.9089653438,-22.46410161513,81.4));
#423 = VECTOR('',#424,1.);
#424 = DIRECTION('',(-0.866025403784,-0.5,0.));
#425 = ORIENTED_EDGE('',*,*,#426,.T.);
#426 = EDGE_CURVE('',#419,#427,#429,.T.);
#427 = VERTEX_POINT('',#428);
#428 = CARTESIAN_POINT('',(34.207733980464,-24.3686465755,81.4));
#429 = CIRCLE('',#430,42.);
#430 = AXIS2_PLACEMENT_3D('',#431,#432,#433);
#431 = CARTESIAN_POINT('',(0.,0.,81.4));
#432 = DIRECTION('',(0.,0.,1.));
#433 = DIRECTION('',(1.,0.,-0.));
#434 = ORIENTED_EDGE('',*,*,#435,.T.);
#435 = EDGE_CURVE('',#427,#436,#438,.T.);
#436 = VERTEX_POINT('',#437);
#437 = CARTESIAN_POINT('',(37.144348251057,-26.06410161513,81.4));
#438 = LINE('',#439,#440);
#439 = CARTESIAN_POINT('',(30.908965343809,-22.46410161513,81.4));
#440 = VECTOR('',#441,1.);
#441 = DIRECTION('',(0.866025403784,-0.5,0.));
#442 = ORIENTED_EDGE('',*,*,#443,.T.);
#443 = EDGE_CURVE('',#436,#444,#446,.T.);
#444 = VERTEX_POINT('',#445);
#445 = CARTESIAN_POINT('',(41.144348251057,-19.13589838486,81.4));
#446 = LINE('',#447,#448);
#447 = CARTESIAN_POINT('',(37.144348251057,-26.06410161513,81.4));
#448 = VECTOR('',#449,1.);
#449 = DIRECTION('',(0.5,0.866025403784,0.));
#450 = ORIENTED_EDGE('',*,*,#451,.F.);
#451 = EDGE_CURVE('',#452,#444,#454,.T.);
#452 = VERTEX_POINT('',#453);
#453 = CARTESIAN_POINT('',(38.207733980463,-17.44044334522,81.4));
#454 = LINE('',#455,#456);
#455 = CARTESIAN_POINT('',(34.908965343809,-15.53589838486,81.4));
#456 = VECTOR('',#457,1.);
#457 = DIRECTION('',(0.866025403784,-0.5,0.));
#458 = ORIENTED_EDGE('',*,*,#459,.T.);
#459 = EDGE_CURVE('',#452,#382,#460,.T.);
#460 = CIRCLE('',#461,42.);
#461 = AXIS2_PLACEMENT_3D('',#462,#463,#464);
#462 = CARTESIAN_POINT('',(0.,0.,81.4));
#463 = DIRECTION('',(0.,0.,1.));
#464 = DIRECTION('',(1.,0.,-0.));
#465 = FACE_BOUND('',#466,.T.);
#466 = EDGE_LOOP('',(#467));
#467 = ORIENTED_EDGE('',*,*,#468,.F.);
#468 = EDGE_CURVE('',#469,#469,#471,.T.);
#469 = VERTEX_POINT('',#470);
#470 = CARTESIAN_POINT('',(5.,-30.,81.4));
#471 = CIRCLE('',#472,5.);
#472 = AXIS2_PLACEMENT_3D('',#473,#474,#475);
#473 = CARTESIAN_POINT('',(-5.510910596163E-15,-30.,81.4));
#474 = DIRECTION('',(0.,0.,1.));
#475 = DIRECTION('',(1.,0.,-0.));
#476 = FACE_BOUND('',#477,.T.);
#477 = EDGE_LOOP('',(#478));
#478 = ORIENTED_EDGE('',*,*,#479,.F.);
#479 = EDGE_CURVE('',#480,#480,#482,.T.);
#480 = VERTEX_POINT('',#481);
#481 = CARTESIAN_POINT('',(3.3,-14.,81.4));
#482 = CIRCLE('',#483,3.3);
#483 = AXIS2_PLACEMENT_3D('',#484,#485,#486);
#484 = CARTESIAN_POINT('',(-2.571758278209E-15,-14.,81.4));
#485 = DIRECTION('',(0.,0.,1.));
#486 = DIRECTION('',(1.,0.,-0.));
#487 = FACE_BOUND('',#488,.T.);
#488 = EDGE_LOOP('',(#489));
#489 = ORIENTED_EDGE('',*,*,#490,.F.);
#490 = EDGE_CURVE('',#491,#491,#493,.T.);
#491 = VERTEX_POINT('',#492);
#492 = CARTESIAN_POINT('',(-20.98076211353,15.,81.4));
#493 = CIRCLE('',#494,5.);
#494 = AXIS2_PLACEMENT_3D('',#495,#496,#497);
#495 = CARTESIAN_POINT('',(-25.98076211353,15.,81.4));
#496 = DIRECTION('',(0.,0.,1.));
#497 = DIRECTION('',(1.,0.,-0.));
#498 = FACE_BOUND('',#499,.T.);
#499 = EDGE_LOOP('',(#500));
#500 = ORIENTED_EDGE('',*,*,#501,.F.);
#501 = EDGE_CURVE('',#502,#502,#504,.T.);
#502 = VERTEX_POINT('',#503);
#503 = CARTESIAN_POINT('',(-8.824355652982,7.,81.4));
#504 = CIRCLE('',#505,3.3);
#505 = AXIS2_PLACEMENT_3D('',#506,#507,#508);
#506 = CARTESIAN_POINT('',(-12.12435565298,7.,81.4));
#507 = DIRECTION('',(0.,0.,1.));
#508 = DIRECTION('',(1.,0.,-0.));
#509 = FACE_BOUND('',#510,.T.);
#510 = EDGE_LOOP('',(#511));
#511 = ORIENTED_EDGE('',*,*,#512,.F.);
#512 = EDGE_CURVE('',#513,#513,#515,.T.);
#513 = VERTEX_POINT('',#514);
#514 = CARTESIAN_POINT('',(15.424355652982,7.,81.4));
#515 = CIRCLE('',#516,3.3);
#516 = AXIS2_PLACEMENT_3D('',#517,#518,#519);
#517 = CARTESIAN_POINT('',(12.124355652982,7.,81.4));
#518 = DIRECTION('',(0.,0.,1.));
#519 = DIRECTION('',(1.,0.,-0.));
#520 = FACE_BOUND('',#521,.T.);
#521 = EDGE_LOOP('',(#522));
#522 = ORIENTED_EDGE('',*,*,#523,.F.);
#523 = EDGE_CURVE('',#524,#524,#526,.T.);
#524 = VERTEX_POINT('',#525);
#525 = CARTESIAN_POINT('',(30.980762113533,15.,81.4));
#526 = CIRCLE('',#527,5.);
#527 = AXIS2_PLACEMENT_3D('',#528,#529,#530);
#528 = CARTESIAN_POINT('',(25.980762113533,15.,81.4));
#529 = DIRECTION('',(0.,0.,1.));
#530 = DIRECTION('',(1.,0.,-0.));
#531 = PLANE('',#532);
#532 = AXIS2_PLACEMENT_3D('',#533,#534,#535);
#533 = CARTESIAN_POINT('',(0.247464368161,8.580216164568E-02,81.4));
#534 = DIRECTION('',(0.,0.,1.));
#535 = DIRECTION('',(1.,0.,-0.));
#536 = ADVANCED_FACE('',(#537),#550,.T.);
#537 = FACE_BOUND('',#538,.T.);
#538 = EDGE_LOOP('',(#539,#540,#541,#542,#543,#549));
#539 = ORIENTED_EDGE('',*,*,#221,.T.);
#540 = ORIENTED_EDGE('',*,*,#158,.T.);
#541 = ORIENTED_EDGE('',*,*,#381,.F.);
#542 = ORIENTED_EDGE('',*,*,#459,.F.);
#543 = ORIENTED_EDGE('',*,*,#544,.F.);
#544 = EDGE_CURVE('',#231,#452,#545,.T.);
#545 = LINE('',#546,#547);
#546 = CARTESIAN_POINT('',(38.207733980463,-17.44044334522,78.4));
#547 = VECTOR('',#548,1.);
#548 = DIRECTION('',(0.,0.,1.));
#549 = ORIENTED_EDGE('',*,*,#230,.T.);
#550 = CYLINDRICAL_SURFACE('',#551,42.);
#551 = AXIS2_PLACEMENT_3D('',#552,#553,#554);
#552 = CARTESIAN_POINT('',(0.,0.,78.4));
#553 = DIRECTION('',(0.,0.,1.));
#554 = DIRECTION('',(1.,0.,-0.));
#555 = ADVANCED_FACE('',(#556),#567,.T.);
#556 = FACE_BOUND('',#557,.T.);
#557 = EDGE_LOOP('',(#558,#564,#565,#566));
#558 = ORIENTED_EDGE('',*,*,#559,.T.);
#559 = EDGE_CURVE('',#289,#394,#560,.T.);
#560 = LINE('',#561,#562);
#561 = CARTESIAN_POINT('',(-38.20773398046,-17.44044334522,78.4));
#562 = VECTOR('',#563,1.);
#563 = DIRECTION('',(0.,0.,1.));
#564 = ORIENTED_EDGE('',*,*,#393,.F.);
#565 = ORIENTED_EDGE('',*,*,#180,.F.);
#566 = ORIENTED_EDGE('',*,*,#296,.T.);
#567 = CYLINDRICAL_SURFACE('',#568,42.);
#568 = AXIS2_PLACEMENT_3D('',#569,#570,#571);
#569 = CARTESIAN_POINT('',(0.,0.,78.4));
#570 = DIRECTION('',(0.,0.,1.));
#571 = DIRECTION('',(1.,0.,-0.));
#572 = ADVANCED_FACE('',(#573),#616,.T.);
#573 = FACE_BOUND('',#574,.T.);
#574 = EDGE_LOOP('',(#575,#576,#577,#578,#586,#594,#602,#610));
#575 = ORIENTED_EDGE('',*,*,#239,.F.);
#576 = ORIENTED_EDGE('',*,*,#544,.T.);
#577 = ORIENTED_EDGE('',*,*,#451,.T.);
#578 = ORIENTED_EDGE('',*,*,#579,.F.);
#579 = EDGE_CURVE('',#580,#444,#582,.T.);
#580 = VERTEX_POINT('',#581);
#581 = CARTESIAN_POINT('',(41.144348251057,-19.13589838486,82.9));
#582 = LINE('',#583,#584);
#583 = CARTESIAN_POINT('',(41.144348251057,-19.13589838486,82.9));
#584 = VECTOR('',#585,1.);
#585 = DIRECTION('',(0.,0.,-1.));
#586 = ORIENTED_EDGE('',*,*,#587,.F.);
#587 = EDGE_CURVE('',#588,#580,#590,.T.);
#588 = VERTEX_POINT('',#589);
#589 = CARTESIAN_POINT('',(40.711335549164,-18.88589838486,84.15));
#590 = LINE('',#591,#592);
#591 = CARTESIAN_POINT('',(40.711335549164,-18.88589838486,84.15));
#592 = VECTOR('',#593,1.);
#593 = DIRECTION('',(0.321633760451,-0.185695338177,-0.928476690885));
#594 = ORIENTED_EDGE('',*,*,#595,.F.);
#595 = EDGE_CURVE('',#596,#588,#598,.T.);
#596 = VERTEX_POINT('',#597);
#597 = CARTESIAN_POINT('',(41.750566033706,-19.48589838486,86.4));
#598 = LINE('',#599,#600);
#599 = CARTESIAN_POINT('',(41.750566033706,-19.48589838486,86.4));
#600 = VECTOR('',#601,1.);
#601 = DIRECTION('',(-0.407541366487,0.235294117647,-0.882352941176));
#602 = ORIENTED_EDGE('',*,*,#603,.F.);
#603 = EDGE_CURVE('',#604,#596,#606,.T.);
#604 = VERTEX_POINT('',#605);
#605 = CARTESIAN_POINT('',(42.529988897112,-19.93589838486,86.4));
#606 = LINE('',#607,#608);
#607 = CARTESIAN_POINT('',(42.529988897112,-19.93589838486,86.4));
#608 = VECTOR('',#609,1.);
#609 = DIRECTION('',(-0.866025403784,0.5,0.));
#610 = ORIENTED_EDGE('',*,*,#611,.F.);
#611 = EDGE_CURVE('',#240,#604,#612,.T.);
#612 = LINE('',#613,#614);
#613 = CARTESIAN_POINT('',(42.529988897112,-19.93589838486,81.4));
#614 = VECTOR('',#615,1.);
#615 = DIRECTION('',(0.,0.,1.));
#616 = PLANE('',#617);
#617 = AXIS2_PLACEMENT_3D('',#618,#619,#620);
#618 = CARTESIAN_POINT('',(40.920488022419,-19.00665262159,
    81.668492821347));
#619 = DIRECTION('',(0.5,0.866025403784,1.70777987045E-16));
#620 = DIRECTION('',(0.866025403784,-0.5,0.));
#621 = ADVANCED_FACE('',(#622),#640,.T.);
#622 = FACE_BOUND('',#623,.T.);
#623 = EDGE_LOOP('',(#624,#625,#626,#634));
#624 = ORIENTED_EDGE('',*,*,#247,.T.);
#625 = ORIENTED_EDGE('',*,*,#611,.T.);
#626 = ORIENTED_EDGE('',*,*,#627,.F.);
#627 = EDGE_CURVE('',#628,#604,#630,.T.);
#628 = VERTEX_POINT('',#629);
#629 = CARTESIAN_POINT('',(38.529988897112,-26.86410161513,86.4));
#630 = LINE('',#631,#632);
#631 = CARTESIAN_POINT('',(38.529988897112,-26.86410161513,86.4));
#632 = VECTOR('',#633,1.);
#633 = DIRECTION('',(0.5,0.866025403784,0.));
#634 = ORIENTED_EDGE('',*,*,#635,.F.);
#635 = EDGE_CURVE('',#248,#628,#636,.T.);
#636 = LINE('',#637,#638);
#637 = CARTESIAN_POINT('',(38.529988897112,-26.86410161513,81.4));
#638 = VECTOR('',#639,1.);
#639 = DIRECTION('',(0.,0.,1.));
#640 = PLANE('',#641);
#641 = AXIS2_PLACEMENT_3D('',#642,#643,#644);
#642 = CARTESIAN_POINT('',(40.529988897112,-23.4,82.4));
#643 = DIRECTION('',(0.866025403784,-0.5,0.));
#644 = DIRECTION('',(0.5,0.866025403784,0.));
#645 = ADVANCED_FACE('',(#646),#687,.T.);
#646 = FACE_BOUND('',#647,.T.);
#647 = EDGE_LOOP('',(#648,#649,#650,#658,#666,#674,#680,#681));
#648 = ORIENTED_EDGE('',*,*,#255,.T.);
#649 = ORIENTED_EDGE('',*,*,#635,.T.);
#650 = ORIENTED_EDGE('',*,*,#651,.T.);
#651 = EDGE_CURVE('',#628,#652,#654,.T.);
#652 = VERTEX_POINT('',#653);
#653 = CARTESIAN_POINT('',(37.750566033706,-26.41410161513,86.4));
#654 = LINE('',#655,#656);
#655 = CARTESIAN_POINT('',(38.529988897112,-26.86410161513,86.4));
#656 = VECTOR('',#657,1.);
#657 = DIRECTION('',(-0.866025403784,0.5,0.));
#658 = ORIENTED_EDGE('',*,*,#659,.T.);
#659 = EDGE_CURVE('',#652,#660,#662,.T.);
#660 = VERTEX_POINT('',#661);
#661 = CARTESIAN_POINT('',(36.711335549164,-25.81410161513,84.15));
#662 = LINE('',#663,#664);
#663 = CARTESIAN_POINT('',(37.750566033706,-26.41410161513,86.4));
#664 = VECTOR('',#665,1.);
#665 = DIRECTION('',(-0.407541366487,0.235294117647,-0.882352941176));
#666 = ORIENTED_EDGE('',*,*,#667,.T.);
#667 = EDGE_CURVE('',#660,#668,#670,.T.);
#668 = VERTEX_POINT('',#669);
#669 = CARTESIAN_POINT('',(37.144348251057,-26.06410161513,82.9));
#670 = LINE('',#671,#672);
#671 = CARTESIAN_POINT('',(36.711335549164,-25.81410161513,84.15));
#672 = VECTOR('',#673,1.);
#673 = DIRECTION('',(0.321633760451,-0.185695338177,-0.928476690885));
#674 = ORIENTED_EDGE('',*,*,#675,.T.);
#675 = EDGE_CURVE('',#668,#436,#676,.T.);
#676 = LINE('',#677,#678);
#677 = CARTESIAN_POINT('',(37.144348251057,-26.06410161513,82.9));
#678 = VECTOR('',#679,1.);
#679 = DIRECTION('',(0.,0.,-1.));
#680 = ORIENTED_EDGE('',*,*,#435,.F.);
#681 = ORIENTED_EDGE('',*,*,#682,.F.);
#682 = EDGE_CURVE('',#256,#427,#683,.T.);
#683 = LINE('',#684,#685);
#684 = CARTESIAN_POINT('',(34.207733980463,-24.3686465755,78.4));
#685 = VECTOR('',#686,1.);
#686 = DIRECTION('',(0.,0.,1.));
#687 = PLANE('',#688);
#688 = AXIS2_PLACEMENT_3D('',#689,#690,#691);
#689 = CARTESIAN_POINT('',(36.920488022419,-25.93485585187,
    81.668492821347));
#690 = DIRECTION('',(-0.5,-0.866025403784,-1.219842764607E-16));
#691 = DIRECTION('',(-0.866025403784,0.5,-6.162975822039E-33));
#692 = ADVANCED_FACE('',(#693),#704,.T.);
#693 = FACE_BOUND('',#694,.T.);
#694 = EDGE_LOOP('',(#695,#696,#697,#703));
#695 = ORIENTED_EDGE('',*,*,#682,.T.);
#696 = ORIENTED_EDGE('',*,*,#426,.F.);
#697 = ORIENTED_EDGE('',*,*,#698,.F.);
#698 = EDGE_CURVE('',#264,#419,#699,.T.);
#699 = LINE('',#700,#701);
#700 = CARTESIAN_POINT('',(-34.20773398046,-24.3686465755,78.4));
#701 = VECTOR('',#702,1.);
#702 = DIRECTION('',(0.,0.,1.));
#703 = ORIENTED_EDGE('',*,*,#263,.T.);
#704 = CYLINDRICAL_SURFACE('',#705,42.);
#705 = AXIS2_PLACEMENT_3D('',#706,#707,#708);
#706 = CARTESIAN_POINT('',(0.,0.,78.4));
#707 = DIRECTION('',(0.,0.,1.));
#708 = DIRECTION('',(1.,0.,-0.));
#709 = ADVANCED_FACE('',(#710),#753,.T.);
#710 = FACE_BOUND('',#711,.T.);
#711 = EDGE_LOOP('',(#712,#713,#721,#729,#737,#745,#751,#752));
#712 = ORIENTED_EDGE('',*,*,#288,.T.);
#713 = ORIENTED_EDGE('',*,*,#714,.T.);
#714 = EDGE_CURVE('',#281,#715,#717,.T.);
#715 = VERTEX_POINT('',#716);
#716 = CARTESIAN_POINT('',(-42.52998889711,-19.93589838486,86.4));
#717 = LINE('',#718,#719);
#718 = CARTESIAN_POINT('',(-42.52998889711,-19.93589838486,78.4));
#719 = VECTOR('',#720,1.);
#720 = DIRECTION('',(0.,0.,1.));
#721 = ORIENTED_EDGE('',*,*,#722,.T.);
#722 = EDGE_CURVE('',#715,#723,#725,.T.);
#723 = VERTEX_POINT('',#724);
#724 = CARTESIAN_POINT('',(-41.7505660337,-19.48589838486,86.4));
#725 = LINE('',#726,#727);
#726 = CARTESIAN_POINT('',(-42.52998889711,-19.93589838486,86.4));
#727 = VECTOR('',#728,1.);
#728 = DIRECTION('',(0.866025403784,0.5,0.));
#729 = ORIENTED_EDGE('',*,*,#730,.T.);
#730 = EDGE_CURVE('',#723,#731,#733,.T.);
#731 = VERTEX_POINT('',#732);
#732 = CARTESIAN_POINT('',(-40.71133554916,-18.88589838486,84.15));
#733 = LINE('',#734,#735);
#734 = CARTESIAN_POINT('',(-41.7505660337,-19.48589838486,86.4));
#735 = VECTOR('',#736,1.);
#736 = DIRECTION('',(0.407541366487,0.235294117647,-0.882352941176));
#737 = ORIENTED_EDGE('',*,*,#738,.T.);
#738 = EDGE_CURVE('',#731,#739,#741,.T.);
#739 = VERTEX_POINT('',#740);
#740 = CARTESIAN_POINT('',(-41.14434825105,-19.13589838486,82.9));
#741 = LINE('',#742,#743);
#742 = CARTESIAN_POINT('',(-40.71133554916,-18.88589838486,84.15));
#743 = VECTOR('',#744,1.);
#744 = DIRECTION('',(-0.321633760451,-0.185695338177,-0.928476690885));
#745 = ORIENTED_EDGE('',*,*,#746,.T.);
#746 = EDGE_CURVE('',#739,#403,#747,.T.);
#747 = LINE('',#748,#749);
#748 = CARTESIAN_POINT('',(-41.14434825105,-19.13589838486,82.9));
#749 = VECTOR('',#750,1.);
#750 = DIRECTION('',(0.,-0.,-1.));
#751 = ORIENTED_EDGE('',*,*,#402,.F.);
#752 = ORIENTED_EDGE('',*,*,#559,.F.);
#753 = PLANE('',#754);
#754 = AXIS2_PLACEMENT_3D('',#755,#756,#757);
#755 = CARTESIAN_POINT('',(-40.92048802241,-19.00665262159,
    81.668492821347));
#756 = DIRECTION('',(-0.5,0.866025403784,0.));
#757 = DIRECTION('',(0.866025403784,0.5,0.));
#758 = ADVANCED_FACE('',(#759),#802,.T.);
#759 = FACE_BOUND('',#760,.T.);
#760 = EDGE_LOOP('',(#761,#762,#763,#764,#772,#780,#788,#796));
#761 = ORIENTED_EDGE('',*,*,#272,.F.);
#762 = ORIENTED_EDGE('',*,*,#698,.T.);
#763 = ORIENTED_EDGE('',*,*,#418,.T.);
#764 = ORIENTED_EDGE('',*,*,#765,.F.);
#765 = EDGE_CURVE('',#766,#411,#768,.T.);
#766 = VERTEX_POINT('',#767);
#767 = CARTESIAN_POINT('',(-37.14434825105,-26.06410161513,82.9));
#768 = LINE('',#769,#770);
#769 = CARTESIAN_POINT('',(-37.14434825105,-26.06410161513,82.9));
#770 = VECTOR('',#771,1.);
#771 = DIRECTION('',(0.,-0.,-1.));
#772 = ORIENTED_EDGE('',*,*,#773,.F.);
#773 = EDGE_CURVE('',#774,#766,#776,.T.);
#774 = VERTEX_POINT('',#775);
#775 = CARTESIAN_POINT('',(-36.71133554916,-25.81410161513,84.15));
#776 = LINE('',#777,#778);
#777 = CARTESIAN_POINT('',(-36.71133554916,-25.81410161513,84.15));
#778 = VECTOR('',#779,1.);
#779 = DIRECTION('',(-0.321633760451,-0.185695338177,-0.928476690885));
#780 = ORIENTED_EDGE('',*,*,#781,.F.);
#781 = EDGE_CURVE('',#782,#774,#784,.T.);
#782 = VERTEX_POINT('',#783);
#783 = CARTESIAN_POINT('',(-37.7505660337,-26.41410161513,86.4));
#784 = LINE('',#785,#786);
#785 = CARTESIAN_POINT('',(-37.7505660337,-26.41410161513,86.4));
#786 = VECTOR('',#787,1.);
#787 = DIRECTION('',(0.407541366487,0.235294117647,-0.882352941176));
#788 = ORIENTED_EDGE('',*,*,#789,.F.);
#789 = EDGE_CURVE('',#790,#782,#792,.T.);
#790 = VERTEX_POINT('',#791);
#791 = CARTESIAN_POINT('',(-38.52998889711,-26.86410161513,86.4));
#792 = LINE('',#793,#794);
#793 = CARTESIAN_POINT('',(-38.52998889711,-26.86410161513,86.4));
#794 = VECTOR('',#795,1.);
#795 = DIRECTION('',(0.866025403784,0.5,0.));
#796 = ORIENTED_EDGE('',*,*,#797,.F.);
#797 = EDGE_CURVE('',#273,#790,#798,.T.);
#798 = LINE('',#799,#800);
#799 = CARTESIAN_POINT('',(-38.52998889711,-26.86410161513,81.4));
#800 = VECTOR('',#801,1.);
#801 = DIRECTION('',(0.,0.,1.));
#802 = PLANE('',#803);
#803 = AXIS2_PLACEMENT_3D('',#804,#805,#806);
#804 = CARTESIAN_POINT('',(-36.92048802241,-25.93485585187,
    81.668492821347));
#805 = DIRECTION('',(0.5,-0.866025403784,-0.));
#806 = DIRECTION('',(-0.866025403784,-0.5,0.));
#807 = ADVANCED_FACE('',(#808),#819,.T.);
#808 = FACE_BOUND('',#809,.T.);
#809 = EDGE_LOOP('',(#810,#811,#812,#813));
#810 = ORIENTED_EDGE('',*,*,#714,.F.);
#811 = ORIENTED_EDGE('',*,*,#280,.T.);
#812 = ORIENTED_EDGE('',*,*,#797,.T.);
#813 = ORIENTED_EDGE('',*,*,#814,.F.);
#814 = EDGE_CURVE('',#715,#790,#815,.T.);
#815 = LINE('',#816,#817);
#816 = CARTESIAN_POINT('',(-42.52998889711,-19.93589838486,86.4));
#817 = VECTOR('',#818,1.);
#818 = DIRECTION('',(0.5,-0.866025403784,0.));
#819 = PLANE('',#820);
#820 = AXIS2_PLACEMENT_3D('',#821,#822,#823);
#821 = CARTESIAN_POINT('',(-40.52998889711,-23.4,82.4));
#822 = DIRECTION('',(-0.866025403784,-0.5,-0.));
#823 = DIRECTION('',(0.5,-0.866025403784,0.));
#824 = ADVANCED_FACE('',(#825),#844,.F.);
#825 = FACE_BOUND('',#826,.F.);
#826 = EDGE_LOOP('',(#827,#836,#842,#843));
#827 = ORIENTED_EDGE('',*,*,#828,.F.);
#828 = EDGE_CURVE('',#829,#829,#831,.T.);
#829 = VERTEX_POINT('',#830);
#830 = CARTESIAN_POINT('',(1.7,-14.,79.8));
#831 = CIRCLE('',#832,1.7);
#832 = AXIS2_PLACEMENT_3D('',#833,#834,#835);
#833 = CARTESIAN_POINT('',(-2.571758278209E-15,-14.,79.8));
#834 = DIRECTION('',(0.,0.,1.));
#835 = DIRECTION('',(1.,0.,-0.));
#836 = ORIENTED_EDGE('',*,*,#837,.F.);
#837 = EDGE_CURVE('',#309,#829,#838,.T.);
#838 = LINE('',#839,#840);
#839 = CARTESIAN_POINT('',(1.7,-14.,77.4));
#840 = VECTOR('',#841,1.);
#841 = DIRECTION('',(0.,0.,1.));
#842 = ORIENTED_EDGE('',*,*,#308,.T.);
#843 = ORIENTED_EDGE('',*,*,#837,.T.);
#844 = CYLINDRICAL_SURFACE('',#845,1.7);
#845 = AXIS2_PLACEMENT_3D('',#846,#847,#848);
#846 = CARTESIAN_POINT('',(-2.571758278209E-15,-14.,77.4));
#847 = DIRECTION('',(0.,0.,1.));
#848 = DIRECTION('',(1.,0.,-0.));
#849 = ADVANCED_FACE('',(#850),#869,.F.);
#850 = FACE_BOUND('',#851,.F.);
#851 = EDGE_LOOP('',(#852,#861,#867,#868));
#852 = ORIENTED_EDGE('',*,*,#853,.F.);
#853 = EDGE_CURVE('',#854,#854,#856,.T.);
#854 = VERTEX_POINT('',#855);
#855 = CARTESIAN_POINT('',(13.824355652982,7.,79.8));
#856 = CIRCLE('',#857,1.7);
#857 = AXIS2_PLACEMENT_3D('',#858,#859,#860);
#858 = CARTESIAN_POINT('',(12.124355652982,7.,79.8));
#859 = DIRECTION('',(0.,0.,1.));
#860 = DIRECTION('',(1.,0.,-0.));
#861 = ORIENTED_EDGE('',*,*,#862,.F.);
#862 = EDGE_CURVE('',#320,#854,#863,.T.);
#863 = LINE('',#864,#865);
#864 = CARTESIAN_POINT('',(13.824355652982,7.,77.4));
#865 = VECTOR('',#866,1.);
#866 = DIRECTION('',(0.,0.,1.));
#867 = ORIENTED_EDGE('',*,*,#319,.T.);
#868 = ORIENTED_EDGE('',*,*,#862,.T.);
#869 = CYLINDRICAL_SURFACE('',#870,1.7);
#870 = AXIS2_PLACEMENT_3D('',#871,#872,#873);
#871 = CARTESIAN_POINT('',(12.124355652982,7.,77.4));
#872 = DIRECTION('',(0.,0.,1.));
#873 = DIRECTION('',(1.,0.,-0.));
#874 = ADVANCED_FACE('',(#875),#894,.F.);
#875 = FACE_BOUND('',#876,.F.);
#876 = EDGE_LOOP('',(#877,#886,#892,#893));
#877 = ORIENTED_EDGE('',*,*,#878,.F.);
#878 = EDGE_CURVE('',#879,#879,#881,.T.);
#879 = VERTEX_POINT('',#880);
#880 = CARTESIAN_POINT('',(-10.42435565298,7.,79.8));
#881 = CIRCLE('',#882,1.7);
#882 = AXIS2_PLACEMENT_3D('',#883,#884,#885);
#883 = CARTESIAN_POINT('',(-12.12435565298,7.,79.8));
#884 = DIRECTION('',(0.,0.,1.));
#885 = DIRECTION('',(1.,0.,-0.));
#886 = ORIENTED_EDGE('',*,*,#887,.F.);
#887 = EDGE_CURVE('',#331,#879,#888,.T.);
#888 = LINE('',#889,#890);
#889 = CARTESIAN_POINT('',(-10.42435565298,7.,77.4));
#890 = VECTOR('',#891,1.);
#891 = DIRECTION('',(0.,0.,1.));
#892 = ORIENTED_EDGE('',*,*,#330,.T.);
#893 = ORIENTED_EDGE('',*,*,#887,.T.);
#894 = CYLINDRICAL_SURFACE('',#895,1.7);
#895 = AXIS2_PLACEMENT_3D('',#896,#897,#898);
#896 = CARTESIAN_POINT('',(-12.12435565298,7.,77.4));
#897 = DIRECTION('',(0.,0.,1.));
#898 = DIRECTION('',(1.,0.,-0.));
#899 = ADVANCED_FACE('',(#900),#911,.T.);
#900 = FACE_BOUND('',#901,.T.);
#901 = EDGE_LOOP('',(#902,#908,#909,#910));
#902 = ORIENTED_EDGE('',*,*,#903,.T.);
#903 = EDGE_CURVE('',#668,#580,#904,.T.);
#904 = LINE('',#905,#906);
#905 = CARTESIAN_POINT('',(37.144348251057,-26.06410161513,82.9));
#906 = VECTOR('',#907,1.);
#907 = DIRECTION('',(0.5,0.866025403784,0.));
#908 = ORIENTED_EDGE('',*,*,#579,.T.);
#909 = ORIENTED_EDGE('',*,*,#443,.F.);
#910 = ORIENTED_EDGE('',*,*,#675,.F.);
#911 = PLANE('',#912);
#912 = AXIS2_PLACEMENT_3D('',#913,#914,#915);
#913 = CARTESIAN_POINT('',(37.144348251057,-26.06410161513,82.9));
#914 = DIRECTION('',(-0.866025403784,0.5,0.));
#915 = DIRECTION('',(0.,0.,-1.));
#916 = ADVANCED_FACE('',(#917),#928,.T.);
#917 = FACE_BOUND('',#918,.T.);
#918 = EDGE_LOOP('',(#919,#925,#926,#927));
#919 = ORIENTED_EDGE('',*,*,#920,.T.);
#920 = EDGE_CURVE('',#739,#766,#921,.T.);
#921 = LINE('',#922,#923);
#922 = CARTESIAN_POINT('',(-41.14434825105,-19.13589838486,82.9));
#923 = VECTOR('',#924,1.);
#924 = DIRECTION('',(0.5,-0.866025403784,0.));
#925 = ORIENTED_EDGE('',*,*,#765,.T.);
#926 = ORIENTED_EDGE('',*,*,#410,.F.);
#927 = ORIENTED_EDGE('',*,*,#746,.F.);
#928 = PLANE('',#929);
#929 = AXIS2_PLACEMENT_3D('',#930,#931,#932);
#930 = CARTESIAN_POINT('',(-41.14434825105,-19.13589838486,82.9));
#931 = DIRECTION('',(0.866025403784,0.5,0.));
#932 = DIRECTION('',(0.,-0.,-1.));
#933 = ADVANCED_FACE('',(#934),#953,.F.);
#934 = FACE_BOUND('',#935,.F.);
#935 = EDGE_LOOP('',(#936,#937,#945,#952));
#936 = ORIENTED_EDGE('',*,*,#468,.F.);
#937 = ORIENTED_EDGE('',*,*,#938,.F.);
#938 = EDGE_CURVE('',#939,#469,#941,.T.);
#939 = VERTEX_POINT('',#940);
#940 = CARTESIAN_POINT('',(5.,-30.,80.6));
#941 = LINE('',#942,#943);
#942 = CARTESIAN_POINT('',(5.,-30.,80.6));
#943 = VECTOR('',#944,1.);
#944 = DIRECTION('',(0.,0.,1.));
#945 = ORIENTED_EDGE('',*,*,#946,.T.);
#946 = EDGE_CURVE('',#939,#939,#947,.T.);
#947 = CIRCLE('',#948,5.);
#948 = AXIS2_PLACEMENT_3D('',#949,#950,#951);
#949 = CARTESIAN_POINT('',(-5.510910596163E-15,-30.,80.6));
#950 = DIRECTION('',(0.,0.,1.));
#951 = DIRECTION('',(1.,0.,-0.));
#952 = ORIENTED_EDGE('',*,*,#938,.T.);
#953 = CYLINDRICAL_SURFACE('',#954,5.);
#954 = AXIS2_PLACEMENT_3D('',#955,#956,#957);
#955 = CARTESIAN_POINT('',(-5.510910596163E-15,-30.,80.6));
#956 = DIRECTION('',(0.,0.,1.));
#957 = DIRECTION('',(1.,0.,-0.));
#958 = ADVANCED_FACE('',(#959),#978,.F.);
#959 = FACE_BOUND('',#960,.F.);
#960 = EDGE_LOOP('',(#961,#962,#970,#977));
#961 = ORIENTED_EDGE('',*,*,#479,.F.);
#962 = ORIENTED_EDGE('',*,*,#963,.F.);
#963 = EDGE_CURVE('',#964,#480,#966,.T.);
#964 = VERTEX_POINT('',#965);
#965 = CARTESIAN_POINT('',(3.3,-14.,81.39));
#966 = LINE('',#967,#968);
#967 = CARTESIAN_POINT('',(3.3,-14.,81.39));
#968 = VECTOR('',#969,1.);
#969 = DIRECTION('',(0.,0.,1.));
#970 = ORIENTED_EDGE('',*,*,#971,.T.);
#971 = EDGE_CURVE('',#964,#964,#972,.T.);
#972 = CIRCLE('',#973,3.3);
#973 = AXIS2_PLACEMENT_3D('',#974,#975,#976);
#974 = CARTESIAN_POINT('',(-2.571758278209E-15,-14.,81.39));
#975 = DIRECTION('',(0.,0.,1.));
#976 = DIRECTION('',(1.,0.,-0.));
#977 = ORIENTED_EDGE('',*,*,#963,.T.);
#978 = CYLINDRICAL_SURFACE('',#979,3.3);
#979 = AXIS2_PLACEMENT_3D('',#980,#981,#982);
#980 = CARTESIAN_POINT('',(-2.571758278209E-15,-14.,81.39));
#981 = DIRECTION('',(0.,0.,1.));
#982 = DIRECTION('',(1.,0.,-0.));
#983 = ADVANCED_FACE('',(#984),#1003,.F.);
#984 = FACE_BOUND('',#985,.F.);
#985 = EDGE_LOOP('',(#986,#987,#995,#1002));
#986 = ORIENTED_EDGE('',*,*,#490,.F.);
#987 = ORIENTED_EDGE('',*,*,#988,.F.);
#988 = EDGE_CURVE('',#989,#491,#991,.T.);
#989 = VERTEX_POINT('',#990);
#990 = CARTESIAN_POINT('',(-20.98076211353,15.,80.6));
#991 = LINE('',#992,#993);
#992 = CARTESIAN_POINT('',(-20.98076211353,15.,80.6));
#993 = VECTOR('',#994,1.);
#994 = DIRECTION('',(0.,0.,1.));
#995 = ORIENTED_EDGE('',*,*,#996,.T.);
#996 = EDGE_CURVE('',#989,#989,#997,.T.);
#997 = CIRCLE('',#998,5.);
#998 = AXIS2_PLACEMENT_3D('',#999,#1000,#1001);
#999 = CARTESIAN_POINT('',(-25.98076211353,15.,80.6));
#1000 = DIRECTION('',(0.,0.,1.));
#1001 = DIRECTION('',(1.,0.,-0.));
#1002 = ORIENTED_EDGE('',*,*,#988,.T.);
#1003 = CYLINDRICAL_SURFACE('',#1004,5.);
#1004 = AXIS2_PLACEMENT_3D('',#1005,#1006,#1007);
#1005 = CARTESIAN_POINT('',(-25.98076211353,15.,80.6));
#1006 = DIRECTION('',(0.,0.,1.));
#1007 = DIRECTION('',(1.,0.,-0.));
#1008 = ADVANCED_FACE('',(#1009),#1028,.F.);
#1009 = FACE_BOUND('',#1010,.F.);
#1010 = EDGE_LOOP('',(#1011,#1012,#1020,#1027));
#1011 = ORIENTED_EDGE('',*,*,#501,.F.);
#1012 = ORIENTED_EDGE('',*,*,#1013,.F.);
#1013 = EDGE_CURVE('',#1014,#502,#1016,.T.);
#1014 = VERTEX_POINT('',#1015);
#1015 = CARTESIAN_POINT('',(-8.824355652982,7.,81.39));
#1016 = LINE('',#1017,#1018);
#1017 = CARTESIAN_POINT('',(-8.824355652982,7.,81.39));
#1018 = VECTOR('',#1019,1.);
#1019 = DIRECTION('',(0.,0.,1.));
#1020 = ORIENTED_EDGE('',*,*,#1021,.T.);
#1021 = EDGE_CURVE('',#1014,#1014,#1022,.T.);
#1022 = CIRCLE('',#1023,3.3);
#1023 = AXIS2_PLACEMENT_3D('',#1024,#1025,#1026);
#1024 = CARTESIAN_POINT('',(-12.12435565298,7.,81.39));
#1025 = DIRECTION('',(0.,0.,1.));
#1026 = DIRECTION('',(1.,0.,-0.));
#1027 = ORIENTED_EDGE('',*,*,#1013,.T.);
#1028 = CYLINDRICAL_SURFACE('',#1029,3.3);
#1029 = AXIS2_PLACEMENT_3D('',#1030,#1031,#1032);
#1030 = CARTESIAN_POINT('',(-12.12435565298,7.,81.39));
#1031 = DIRECTION('',(0.,0.,1.));
#1032 = DIRECTION('',(1.,0.,-0.));
#1033 = ADVANCED_FACE('',(#1034),#1053,.F.);
#1034 = FACE_BOUND('',#1035,.F.);
#1035 = EDGE_LOOP('',(#1036,#1037,#1045,#1052));
#1036 = ORIENTED_EDGE('',*,*,#512,.F.);
#1037 = ORIENTED_EDGE('',*,*,#1038,.F.);
#1038 = EDGE_CURVE('',#1039,#513,#1041,.T.);
#1039 = VERTEX_POINT('',#1040);
#1040 = CARTESIAN_POINT('',(15.424355652982,7.,81.39));
#1041 = LINE('',#1042,#1043);
#1042 = CARTESIAN_POINT('',(15.424355652982,7.,81.39));
#1043 = VECTOR('',#1044,1.);
#1044 = DIRECTION('',(0.,0.,1.));
#1045 = ORIENTED_EDGE('',*,*,#1046,.T.);
#1046 = EDGE_CURVE('',#1039,#1039,#1047,.T.);
#1047 = CIRCLE('',#1048,3.3);
#1048 = AXIS2_PLACEMENT_3D('',#1049,#1050,#1051);
#1049 = CARTESIAN_POINT('',(12.124355652982,7.,81.39));
#1050 = DIRECTION('',(0.,0.,1.));
#1051 = DIRECTION('',(1.,0.,-0.));
#1052 = ORIENTED_EDGE('',*,*,#1038,.T.);
#1053 = CYLINDRICAL_SURFACE('',#1054,3.3);
#1054 = AXIS2_PLACEMENT_3D('',#1055,#1056,#1057);
#1055 = CARTESIAN_POINT('',(12.124355652982,7.,81.39));
#1056 = DIRECTION('',(0.,0.,1.));
#1057 = DIRECTION('',(1.,0.,-0.));
#1058 = ADVANCED_FACE('',(#1059),#1078,.F.);
#1059 = FACE_BOUND('',#1060,.F.);
#1060 = EDGE_LOOP('',(#1061,#1062,#1070,#1077));
#1061 = ORIENTED_EDGE('',*,*,#523,.F.);
#1062 = ORIENTED_EDGE('',*,*,#1063,.F.);
#1063 = EDGE_CURVE('',#1064,#524,#1066,.T.);
#1064 = VERTEX_POINT('',#1065);
#1065 = CARTESIAN_POINT('',(30.980762113533,15.,80.6));
#1066 = LINE('',#1067,#1068);
#1067 = CARTESIAN_POINT('',(30.980762113533,15.,80.6));
#1068 = VECTOR('',#1069,1.);
#1069 = DIRECTION('',(0.,0.,1.));
#1070 = ORIENTED_EDGE('',*,*,#1071,.T.);
#1071 = EDGE_CURVE('',#1064,#1064,#1072,.T.);
#1072 = CIRCLE('',#1073,5.);
#1073 = AXIS2_PLACEMENT_3D('',#1074,#1075,#1076);
#1074 = CARTESIAN_POINT('',(25.980762113533,15.,80.6));
#1075 = DIRECTION('',(0.,0.,1.));
#1076 = DIRECTION('',(1.,0.,-0.));
#1077 = ORIENTED_EDGE('',*,*,#1063,.T.);
#1078 = CYLINDRICAL_SURFACE('',#1079,5.);
#1079 = AXIS2_PLACEMENT_3D('',#1080,#1081,#1082);
#1080 = CARTESIAN_POINT('',(25.980762113533,15.,80.6));
#1081 = DIRECTION('',(0.,0.,1.));
#1082 = DIRECTION('',(1.,0.,-0.));
#1083 = ADVANCED_FACE('',(#1084),#1095,.T.);
#1084 = FACE_BOUND('',#1085,.T.);
#1085 = EDGE_LOOP('',(#1086,#1092,#1093,#1094));
#1086 = ORIENTED_EDGE('',*,*,#1087,.T.);
#1087 = EDGE_CURVE('',#660,#588,#1088,.T.);
#1088 = LINE('',#1089,#1090);
#1089 = CARTESIAN_POINT('',(36.711335549164,-25.81410161513,84.15));
#1090 = VECTOR('',#1091,1.);
#1091 = DIRECTION('',(0.5,0.866025403784,0.));
#1092 = ORIENTED_EDGE('',*,*,#587,.T.);
#1093 = ORIENTED_EDGE('',*,*,#903,.F.);
#1094 = ORIENTED_EDGE('',*,*,#667,.F.);
#1095 = PLANE('',#1096);
#1096 = AXIS2_PLACEMENT_3D('',#1097,#1098,#1099);
#1097 = CARTESIAN_POINT('',(36.711335549164,-25.81410161513,84.15));
#1098 = DIRECTION('',(-0.804084401128,0.464238345443,-0.371390676354));
#1099 = DIRECTION('',(0.321633760451,-0.185695338177,-0.928476690885));
#1100 = ADVANCED_FACE('',(#1101),#1112,.T.);
#1101 = FACE_BOUND('',#1102,.T.);
#1102 = EDGE_LOOP('',(#1103,#1109,#1110,#1111));
#1103 = ORIENTED_EDGE('',*,*,#1104,.T.);
#1104 = EDGE_CURVE('',#652,#596,#1105,.T.);
#1105 = LINE('',#1106,#1107);
#1106 = CARTESIAN_POINT('',(37.750566033706,-26.41410161513,86.4));
#1107 = VECTOR('',#1108,1.);
#1108 = DIRECTION('',(0.5,0.866025403784,0.));
#1109 = ORIENTED_EDGE('',*,*,#595,.T.);
#1110 = ORIENTED_EDGE('',*,*,#1087,.F.);
#1111 = ORIENTED_EDGE('',*,*,#659,.F.);
#1112 = PLANE('',#1113);
#1113 = AXIS2_PLACEMENT_3D('',#1114,#1115,#1116);
#1114 = CARTESIAN_POINT('',(37.750566033706,-26.41410161513,86.4));
#1115 = DIRECTION('',(-0.764140062163,0.441176470588,0.470588235294));
#1116 = DIRECTION('',(-0.407541366487,0.235294117647,-0.882352941176));
#1117 = ADVANCED_FACE('',(#1118),#1124,.T.);
#1118 = FACE_BOUND('',#1119,.T.);
#1119 = EDGE_LOOP('',(#1120,#1121,#1122,#1123));
#1120 = ORIENTED_EDGE('',*,*,#627,.T.);
#1121 = ORIENTED_EDGE('',*,*,#603,.T.);
#1122 = ORIENTED_EDGE('',*,*,#1104,.F.);
#1123 = ORIENTED_EDGE('',*,*,#651,.F.);
#1124 = PLANE('',#1125);
#1125 = AXIS2_PLACEMENT_3D('',#1126,#1127,#1128);
#1126 = CARTESIAN_POINT('',(38.529988897112,-26.86410161513,86.4));
#1127 = DIRECTION('',(0.,0.,1.));
#1128 = DIRECTION('',(-0.866025403784,0.5,0.));
#1129 = ADVANCED_FACE('',(#1130),#1141,.T.);
#1130 = FACE_BOUND('',#1131,.T.);
#1131 = EDGE_LOOP('',(#1132,#1133,#1134,#1140));
#1132 = ORIENTED_EDGE('',*,*,#814,.T.);
#1133 = ORIENTED_EDGE('',*,*,#789,.T.);
#1134 = ORIENTED_EDGE('',*,*,#1135,.F.);
#1135 = EDGE_CURVE('',#723,#782,#1136,.T.);
#1136 = LINE('',#1137,#1138);
#1137 = CARTESIAN_POINT('',(-41.7505660337,-19.48589838486,86.4));
#1138 = VECTOR('',#1139,1.);
#1139 = DIRECTION('',(0.5,-0.866025403784,0.));
#1140 = ORIENTED_EDGE('',*,*,#722,.F.);
#1141 = PLANE('',#1142);
#1142 = AXIS2_PLACEMENT_3D('',#1143,#1144,#1145);
#1143 = CARTESIAN_POINT('',(-42.52998889711,-19.93589838486,86.4));
#1144 = DIRECTION('',(0.,0.,1.));
#1145 = DIRECTION('',(0.866025403784,0.5,0.));
#1146 = ADVANCED_FACE('',(#1147),#1158,.T.);
#1147 = FACE_BOUND('',#1148,.T.);
#1148 = EDGE_LOOP('',(#1149,#1150,#1151,#1157));
#1149 = ORIENTED_EDGE('',*,*,#1135,.T.);
#1150 = ORIENTED_EDGE('',*,*,#781,.T.);
#1151 = ORIENTED_EDGE('',*,*,#1152,.F.);
#1152 = EDGE_CURVE('',#731,#774,#1153,.T.);
#1153 = LINE('',#1154,#1155);
#1154 = CARTESIAN_POINT('',(-40.71133554916,-18.88589838486,84.15));
#1155 = VECTOR('',#1156,1.);
#1156 = DIRECTION('',(0.5,-0.866025403784,0.));
#1157 = ORIENTED_EDGE('',*,*,#730,.F.);
#1158 = PLANE('',#1159);
#1159 = AXIS2_PLACEMENT_3D('',#1160,#1161,#1162);
#1160 = CARTESIAN_POINT('',(-41.7505660337,-19.48589838486,86.4));
#1161 = DIRECTION('',(0.764140062163,0.441176470588,0.470588235294));
#1162 = DIRECTION('',(0.407541366487,0.235294117647,-0.882352941176));
#1163 = ADVANCED_FACE('',(#1164),#1170,.T.);
#1164 = FACE_BOUND('',#1165,.T.);
#1165 = EDGE_LOOP('',(#1166,#1167,#1168,#1169));
#1166 = ORIENTED_EDGE('',*,*,#1152,.T.);
#1167 = ORIENTED_EDGE('',*,*,#773,.T.);
#1168 = ORIENTED_EDGE('',*,*,#920,.F.);
#1169 = ORIENTED_EDGE('',*,*,#738,.F.);
#1170 = PLANE('',#1171);
#1171 = AXIS2_PLACEMENT_3D('',#1172,#1173,#1174);
#1172 = CARTESIAN_POINT('',(-40.71133554916,-18.88589838486,84.15));
#1173 = DIRECTION('',(0.804084401128,0.464238345443,-0.371390676354));
#1174 = DIRECTION('',(-0.321633760451,-0.185695338177,-0.928476690885));
#1175 = ADVANCED_FACE('',(#1176),#1195,.F.);
#1176 = FACE_BOUND('',#1177,.F.);
#1177 = EDGE_LOOP('',(#1178,#1187,#1193,#1194));
#1178 = ORIENTED_EDGE('',*,*,#1179,.F.);
#1179 = EDGE_CURVE('',#1180,#1180,#1182,.T.);
#1180 = VERTEX_POINT('',#1181);
#1181 = CARTESIAN_POINT('',(3.29,-14.,81.39));
#1182 = CIRCLE('',#1183,3.29);
#1183 = AXIS2_PLACEMENT_3D('',#1184,#1185,#1186);
#1184 = CARTESIAN_POINT('',(-2.571758278209E-15,-14.,81.39));
#1185 = DIRECTION('',(0.,0.,1.));
#1186 = DIRECTION('',(1.,0.,-0.));
#1187 = ORIENTED_EDGE('',*,*,#1188,.F.);
#1188 = EDGE_CURVE('',#829,#1180,#1189,.T.);
#1189 = LINE('',#1190,#1191);
#1190 = CARTESIAN_POINT('',(1.7,-14.,79.8));
#1191 = VECTOR('',#1192,1.);
#1192 = DIRECTION('',(0.707106781187,-1.731912112471E-16,0.707106781187)
  );
#1193 = ORIENTED_EDGE('',*,*,#828,.T.);
#1194 = ORIENTED_EDGE('',*,*,#1188,.T.);
#1195 = CONICAL_SURFACE('',#1196,1.7,0.785398163397);
#1196 = AXIS2_PLACEMENT_3D('',#1197,#1198,#1199);
#1197 = CARTESIAN_POINT('',(-2.571758278209E-15,-14.,79.8));
#1198 = DIRECTION('',(0.,0.,1.));
#1199 = DIRECTION('',(1.,0.,-0.));
#1200 = ADVANCED_FACE('',(#1201),#1220,.F.);
#1201 = FACE_BOUND('',#1202,.F.);
#1202 = EDGE_LOOP('',(#1203,#1212,#1218,#1219));
#1203 = ORIENTED_EDGE('',*,*,#1204,.F.);
#1204 = EDGE_CURVE('',#1205,#1205,#1207,.T.);
#1205 = VERTEX_POINT('',#1206);
#1206 = CARTESIAN_POINT('',(15.414355652982,7.,81.39));
#1207 = CIRCLE('',#1208,3.29);
#1208 = AXIS2_PLACEMENT_3D('',#1209,#1210,#1211);
#1209 = CARTESIAN_POINT('',(12.124355652982,7.,81.39));
#1210 = DIRECTION('',(0.,0.,1.));
#1211 = DIRECTION('',(1.,0.,-0.));
#1212 = ORIENTED_EDGE('',*,*,#1213,.F.);
#1213 = EDGE_CURVE('',#854,#1205,#1214,.T.);
#1214 = LINE('',#1215,#1216);
#1215 = CARTESIAN_POINT('',(13.824355652982,7.,79.8));
#1216 = VECTOR('',#1217,1.);
#1217 = DIRECTION('',(0.707106781187,-1.731912112471E-16,0.707106781187)
  );
#1218 = ORIENTED_EDGE('',*,*,#853,.T.);
#1219 = ORIENTED_EDGE('',*,*,#1213,.T.);
#1220 = CONICAL_SURFACE('',#1221,1.7,0.785398163397);
#1221 = AXIS2_PLACEMENT_3D('',#1222,#1223,#1224);
#1222 = CARTESIAN_POINT('',(12.124355652982,7.,79.8));
#1223 = DIRECTION('',(0.,0.,1.));
#1224 = DIRECTION('',(1.,0.,-0.));
#1225 = ADVANCED_FACE('',(#1226),#1245,.F.);
#1226 = FACE_BOUND('',#1227,.F.);
#1227 = EDGE_LOOP('',(#1228,#1237,#1243,#1244));
#1228 = ORIENTED_EDGE('',*,*,#1229,.F.);
#1229 = EDGE_CURVE('',#1230,#1230,#1232,.T.);
#1230 = VERTEX_POINT('',#1231);
#1231 = CARTESIAN_POINT('',(-8.834355652982,7.,81.39));
#1232 = CIRCLE('',#1233,3.29);
#1233 = AXIS2_PLACEMENT_3D('',#1234,#1235,#1236);
#1234 = CARTESIAN_POINT('',(-12.12435565298,7.,81.39));
#1235 = DIRECTION('',(0.,0.,1.));
#1236 = DIRECTION('',(1.,0.,-0.));
#1237 = ORIENTED_EDGE('',*,*,#1238,.F.);
#1238 = EDGE_CURVE('',#879,#1230,#1239,.T.);
#1239 = LINE('',#1240,#1241);
#1240 = CARTESIAN_POINT('',(-10.42435565298,7.,79.8));
#1241 = VECTOR('',#1242,1.);
#1242 = DIRECTION('',(0.707106781187,-1.731912112471E-16,0.707106781187)
  );
#1243 = ORIENTED_EDGE('',*,*,#878,.T.);
#1244 = ORIENTED_EDGE('',*,*,#1238,.T.);
#1245 = CONICAL_SURFACE('',#1246,1.7,0.785398163397);
#1246 = AXIS2_PLACEMENT_3D('',#1247,#1248,#1249);
#1247 = CARTESIAN_POINT('',(-12.12435565298,7.,79.8));
#1248 = DIRECTION('',(0.,0.,1.));
#1249 = DIRECTION('',(1.,0.,-0.));
#1250 = ADVANCED_FACE('',(#1251),#1254,.T.);
#1251 = FACE_BOUND('',#1252,.F.);
#1252 = EDGE_LOOP('',(#1253));
#1253 = ORIENTED_EDGE('',*,*,#946,.F.);
#1254 = PLANE('',#1255);
#1255 = AXIS2_PLACEMENT_3D('',#1256,#1257,#1258);
#1256 = CARTESIAN_POINT('',(-5.510910596163E-15,-30.,80.6));
#1257 = DIRECTION('',(0.,0.,1.));
#1258 = DIRECTION('',(1.,0.,-0.));
#1259 = ADVANCED_FACE('',(#1260,#1263),#1266,.T.);
#1260 = FACE_BOUND('',#1261,.T.);
#1261 = EDGE_LOOP('',(#1262));
#1262 = ORIENTED_EDGE('',*,*,#971,.T.);
#1263 = FACE_BOUND('',#1264,.T.);
#1264 = EDGE_LOOP('',(#1265));
#1265 = ORIENTED_EDGE('',*,*,#1179,.F.);
#1266 = PLANE('',#1267);
#1267 = AXIS2_PLACEMENT_3D('',#1268,#1269,#1270);
#1268 = CARTESIAN_POINT('',(-2.571758278209E-15,-14.,81.39));
#1269 = DIRECTION('',(0.,0.,1.));
#1270 = DIRECTION('',(1.,0.,-0.));
#1271 = ADVANCED_FACE('',(#1272),#1275,.T.);
#1272 = FACE_BOUND('',#1273,.F.);
#1273 = EDGE_LOOP('',(#1274));
#1274 = ORIENTED_EDGE('',*,*,#996,.F.);
#1275 = PLANE('',#1276);
#1276 = AXIS2_PLACEMENT_3D('',#1277,#1278,#1279);
#1277 = CARTESIAN_POINT('',(-25.98076211353,15.,80.6));
#1278 = DIRECTION('',(0.,0.,1.));
#1279 = DIRECTION('',(1.,0.,-0.));
#1280 = ADVANCED_FACE('',(#1281,#1284),#1287,.T.);
#1281 = FACE_BOUND('',#1282,.T.);
#1282 = EDGE_LOOP('',(#1283));
#1283 = ORIENTED_EDGE('',*,*,#1021,.T.);
#1284 = FACE_BOUND('',#1285,.T.);
#1285 = EDGE_LOOP('',(#1286));
#1286 = ORIENTED_EDGE('',*,*,#1229,.F.);
#1287 = PLANE('',#1288);
#1288 = AXIS2_PLACEMENT_3D('',#1289,#1290,#1291);
#1289 = CARTESIAN_POINT('',(-12.12435565298,7.,81.39));
#1290 = DIRECTION('',(0.,0.,1.));
#1291 = DIRECTION('',(1.,0.,-0.));
#1292 = ADVANCED_FACE('',(#1293,#1296),#1299,.T.);
#1293 = FACE_BOUND('',#1294,.T.);
#1294 = EDGE_LOOP('',(#1295));
#1295 = ORIENTED_EDGE('',*,*,#1046,.T.);
#1296 = FACE_BOUND('',#1297,.T.);
#1297 = EDGE_LOOP('',(#1298));
#1298 = ORIENTED_EDGE('',*,*,#1204,.F.);
#1299 = PLANE('',#1300);
#1300 = AXIS2_PLACEMENT_3D('',#1301,#1302,#1303);
#1301 = CARTESIAN_POINT('',(12.124355652982,7.,81.39));
#1302 = DIRECTION('',(0.,0.,1.));
#1303 = DIRECTION('',(1.,0.,-0.));
#1304 = ADVANCED_FACE('',(#1305),#1308,.T.);
#1305 = FACE_BOUND('',#1306,.F.);
#1306 = EDGE_LOOP('',(#1307));
#1307 = ORIENTED_EDGE('',*,*,#1071,.F.);
#1308 = PLANE('',#1309);
#1309 = AXIS2_PLACEMENT_3D('',#1310,#1311,#1312);
#1310 = CARTESIAN_POINT('',(25.980762113533,15.,80.6));
#1311 = DIRECTION('',(0.,0.,1.));
#1312 = DIRECTION('',(1.,0.,-0.));
#1313 = ( GEOMETRIC_REPRESENTATION_CONTEXT(3) 
GLOBAL_UNCERTAINTY_ASSIGNED_CONTEXT((#1317)) 
GLOBAL_UNIT_ASSIGNED_CONTEXT((#1314,#1315,#1316)) REPRESENTATION_CONTEXT
('Context #1','3D Context with UNIT and UNCERTAINTY') );
#1314 = ( LENGTH_UNIT() NAMED_UNIT(*) SI_UNIT(.MILLI.,.METRE.) );
#1315 = ( NAMED_UNIT(*) PLANE_ANGLE_UNIT() SI_UNIT($,.RADIAN.) );
#1316 = ( NAMED_UNIT(*) SI_UNIT($,.STERADIAN.) SOLID_ANGLE_UNIT() );
#1317 = UNCERTAINTY_MEASURE_WITH_UNIT(LENGTH_MEASURE(1.E-07),#1314,
  'distance_accuracy_value','confusion accuracy');
#1318 = PRODUCT_RELATED_PRODUCT_CATEGORY('part',$,(#7));
ENDSEC;
END-ISO-10303-21;
